<svg xmlns="http://www.w3.org/2000/svg" viewBox="0 0 100 100">
  <path d="M90.2 53.92v11.77h3.92V53.92h-1.96zM86.27 65.69v3.92H90.2v-3.92h-1.96zM86.27 53.92H90.2V50H86.27v1.96zM84.31 59.8V63.73h1.96v-7.85h-1.96v1.96zM82.35 69.61h-7.84v3.92H86.27v-3.92h-1.96zM80.39 63.73h-3.92v1.96h7.84v-1.96h-1.96zM76.47 55.88h1.96v3.92h1.96v-3.92h3.92v-1.96h-5.88v-1.96h-1.96v1.96zM76.47 59.8v-3.92h-1.96v7.85h1.96v-1.97zM74.51 65.69h-3.92v3.92h3.92v-1.96z"/>
  <path d="M74.51 53.92v-1.96h1.96V50h9.8v-3.92H74.51v-1.96h-1.96v3.92h1.96V50h-3.92v3.92h1.96zM74.51 34.31v-3.92h-1.96v1.96h-3.92v1.96h3.92v1.96h1.96zM72.55 40.2V36.27h-1.96v1.96h-1.96v1.97h-1.96v1.96h-1.96v1.96h-1.96v1.96h-1.97v1.96h-1.96V50h-1.96v1.96H54.9v1.96h-1.96v1.96h-1.96v5.88h1.96v-3.92h1.96v-1.96h1.96v-1.96h1.96v-1.96h1.96V50h1.97v-1.96h1.96v-1.96h1.96v-1.96h1.96v-1.96h1.96v1.96h1.96v-1.96zM70.59 28.43h-1.96v1.96h3.92v-1.96zM70.59 61.76v-7.84h-3.92v11.77h3.92v-1.96zM66.67 26.47H56.86v3.92h1.96v-1.96H68.63v-1.96zM64.71 34.31h-7.85v3.92h1.96v-1.96H68.63v-1.96h-1.96z"/>
  <path d="M47.06 61.76V59.8H45.1v-3.92h5.88v-1.96H45.1v-1.96h-1.96V50h-1.96v-1.96h-1.96v-1.96h-1.97v-1.96h-1.96v-1.96H64.71V40.2H31.37v-1.97h-1.96v-1.96h1.96v-1.96h5.88v-1.96h-1.96v-1.96H23.53v1.96h-1.96v1.96h1.96v1.96h3.92V40.2h1.96v1.96h1.96v1.96h1.96v1.96h1.96v1.96h1.96V50h1.97v1.96h1.96v1.96h1.96v3.92H33.33v-3.92h-3.92v3.92h-3.92v-3.92h-9.8v1.96h5.88v1.96h-1.96v1.96h3.92V63.73h1.96V59.8h3.92v5.89h3.92V59.8H43.14V63.73h7.84v-1.97h-1.96z"/>
  <path d="M47.06 57.84h1.96v1.96h-1.96zM43.14 65.69h1.96v1.96h-1.96zM41.18 63.73h1.96v1.96h-1.96zM39.22 61.76h1.96v1.97h-1.96zM31.37 46.08h1.96v1.96h-1.96zM29.41 48.04h1.96V50h-1.96zM25.49 65.69v3.92h3.92v-3.92h-1.96zM25.49 53.92h3.92V50h-3.92v1.96zM21.57 69.61h-7.84v3.92H25.49v-3.92h-1.96zM19.61 63.73h-3.92v1.96h7.84v-1.96h-1.96zM17.65 50h7.84v-3.92H13.73V50h1.96z"/>
  <path d="M13.73 57.84v5.89h1.96v-7.85h-1.96zM13.73 65.69H9.8v3.92H13.73v-1.96zM13.73 53.92V50H9.8v3.92h1.96zM9.8 61.76v-7.84H5.88v11.77H9.8v-1.96z"/>
</svg>