<svg xmlns="http://www.w3.org/2000/svg" viewBox="0 0 100 100">
  <path d="M84.315 54.9h-5.88v1.96h-3.92v1.96H33.335v-1.96h-3.92V54.9H13.725v1.96h-1.96v5.88h1.96V66.67h1.97v3.92h1.96v3.92h1.96v3.92h1.96v1.96H76.475v-1.96h1.96v-1.96h1.96v-3.92h1.96v-3.92h1.96V64.7h1.96v-3.92h1.96V54.9h-3.92zm-15.68 11.77v3.92h-1.96v1.96H62.745v-1.96h-1.96v-3.92h1.96V64.7H66.675v1.97h1.96zm-17.65 0v3.92h-1.96v1.96h-3.92v-1.96h-1.96v-3.92h1.96V64.7h3.92v1.97h1.96zm-17.65 0v3.92h-1.96v1.96h-3.92v-1.96h-1.96v-3.92h1.96V64.7h3.92v1.97h1.96zm49.02-5.89v1.96H21.575v-1.96H82.355v-1.96h1.96v1.96h-1.96z"/>
  <path d="M62.745 66.67v3.92H66.675v-3.92h-1.96zM52.945 31.37h1.96v-3.92h-1.96v1.96zM50.985 33.33v-3.92h-3.92v1.96h1.96v1.96zM50.985 25.49v1.96h1.96v-3.92h-3.92v1.96zM45.105 66.67v3.92h3.92v-3.92h-1.96zM45.105 27.45h-3.92v1.96h5.88v-1.96zM45.105 23.53h3.92v-1.96h-5.88v1.96zM41.185 19.61h-5.89v1.96h7.85v-1.96zM37.255 29.41v1.96H41.185v-1.96h-1.97zM37.255 56.86H64.715v-9.8h-1.97V45.1h-1.96v-1.96h-3.92V33.33h-3.92v1.96h-1.96v7.85H29.415v1.96h-1.96v1.96h-1.96v5.88h5.88v1.96h3.92v1.96h1.96zm1.96-9.8H43.145v1.96h1.96v3.92h-1.96v-3.92H39.215v-1.96zm21.57 1.96v3.92h-1.96v-3.92h-3.92v-1.96h3.92v1.96h1.96zm-7.84 0v3.92h-1.96v-3.92h-3.92v-1.96h3.92v1.96h1.96zm-17.65 1.96v-1.96h-3.92v-1.96h3.92v1.96h1.96v3.92h-1.96v-1.96zM35.295 27.45h1.96v1.96h-1.96zM33.335 21.57h1.96v1.96h-1.96zM31.375 27.45h1.96v1.96h-1.96zM27.455 66.67v3.92h3.92v-3.92h-1.96z"/>
</svg>