<svg xmlns="http://www.w3.org/2000/svg" viewBox="0 0 48 48">
  <path d="M8.08 12.64h1.64v1.64H8.08zM9.72 10.54h1.87v2.11H9.72zM8.08 1.87h1.64v1.64H8.08zM9.72 3.51h1.87v1.87H9.72zM7.96 7.02h1.76v2.11H6.21V7.02h1.75zM15.1 14.25v1.91h-1.87v-3.52h1.87v1.61zM13.23 7.02h1.87v2.11h-1.87zM15.1 1.82v1.69h-1.87V0h1.87v1.82zM15.1 9.13h1.64v1.4H15.1zM16.74 10.54h1.87v2.11h-1.87zM20.48 9.13H24v1.41H18.61V9.13h1.87zM25.87 12.53v1.75H24v-3.74h1.87v1.99zM25.87 14.28h1.64v1.87h-1.64zM39.92 30.2v-3.51h-1.64v-1.87h-1.87v-1.64H32.9v-3.75h-3.51v-3.27h-1.88v3.27H24v3.75h-3.51v1.64h-1.88v1.87h-1.87v3.51H15.1v8.9h1.64v3.51h1.87v1.88h1.88v1.64H24V48h8.9v-1.87h3.51v-1.64h1.87v-1.88h1.64V39.1h1.88v-8.9Zm-14 1.64H24v1.88h-3.51v-1.88h-1.64v-3.51h1.64v-1.64H24v1.64h1.87Z"/>
</svg>