<svg xmlns="http://www.w3.org/2000/svg" viewBox="-5 -10 110 110">
  <path d="M15.465 85.949v3.07h3.07v2.953h26.93v2.954h8.977v-2.954h27.047V89.02h2.953v-6.023h3.07V46.973h-3.07V44.02h-2.953v-3.07h-2.953v-2.954h-3.07v2.953h-8.977v3.07h-8.977v2.954h-3.07v2.953h-2.953v3.07h-2.953v-3.07h-3.07v-2.953h-2.954V44.02h-8.976v-3.07h-9.094v-2.954h-2.953v2.953h-2.953v3.07h-3.07v2.954h-2.954v36.023h2.953zm72.02-51.004h2.953v-2.953h-6.023v2.953zm-74.969-2.953h-3.07v2.953h6.023v-2.953zm8.973-6.02h-2.953V23.02h-3.07v2.953h3.07v3.07h2.953zm12.043 3.07h-3.07V23.02h-2.954v-6.023h-3.07v-2.953h-2.953v2.953h2.953v6.023h3.07v6.024h2.953v2.953h3.07zm2.953-14.991v-3.07h-2.953v6.023h2.953v8.976h2.953v8.977h3.07V25.98h-3.07v-8.976h-2.953zm44.98 11.926h-2.953v3.07h2.953v-3.07h2.953v-2.953h-2.953zm-12.043 6.02v-2.954h3.07V23.02h2.953v-6.024h3.07v-2.953h-3.07v2.953h-2.953v6.024h-3.07v6.023h-2.953v2.953zm-11.926 0v2.952h2.953v-8.976h3.07v-8.977h2.953v-6.023H63.52v6.023h-3.07v8.977h-2.953zm-6.02-23.97v-3.07h-2.953v33.07h2.953zm21.016 62.93h2.953v-2.953H66.47v2.953h-6.024v3.07h-6.023v2.954h6.023v-2.953h6.024v-3.07zM57.5 64.937h-3.07v3.071h6.023v-3.07h6.024v-2.953h8.976v-2.953h-8.976v2.953h-6.024v2.953zm14.992-11.925h2.953v-3.07h-6.023v3.07h-8.977v2.953h-6.023v3.07h6.023v-3.07h8.977v-2.953zM42.504 76.98h2.953v-2.953h-6.023v-3.07h-5.906v-2.954h-9.094v2.953h9.094v3.07h5.906v2.954zm0-8.973h2.953v-3.07h-6.023v-2.953h-5.906v-2.953h-9.094v2.953h9.094v2.953h5.906v3.07zm0-8.973h2.953v-3.07h-6.023v-2.953h-8.977v-3.07h-6.023v3.07h6.023v2.953h8.977v3.07zm41.914 20.898h-5.906V76.98h2.953v-30h2.953zM54.43 49.945h3.07v-2.953h8.977V44.04h8.977v-3.07h3.07v36.023H69.43v2.953h-5.906v3.07h-6.023v2.953h-3.07v3.07h-2.954V53.017h2.953zm27.035 33.06v6.023H63.512v-3.07h15v-2.954zm-2.953 0h-9.094v-3.071h9.094zm-57.023 0v2.952h15v3.07H18.536v-6.023zm2.953 0H21.49v-3.071h8.977v3.07zm-8.972-6.02v-30h3.07v30h2.953v2.953H15.47zm6.02-17.945V40.97h2.952v3.07h9.094v2.953h8.977v2.953h2.953v3.07h3.07V89.04h-3.07v-3.07h-2.953v-2.954h-6.024v-3.07h-6.023v-2.953h-8.977z"/>
</svg>