<svg xmlns="http://www.w3.org/2000/svg" viewBox="0 0 100 100">
  <path d="M90.2 69.615v-1.96H86.27v-1.97h-7.84v-5.88h-1.96v-1.96h-1.96v-1.96h-3.92v1.96h-1.96v5.88h-1.96v-1.96h-1.96v-3.92h-1.96v-1.96H58.82v1.96h-1.96v1.96H54.9v1.96h-3.92v-3.92h-1.96v-1.96h-1.96v1.96H45.1v3.92h-3.92v1.96H37.25v-3.92h-1.96v-3.92h-1.96v-1.96h-3.92v1.96h-5.88v-1.96h-1.96v7.84h1.96v3.92h-7.84v1.97H9.8v3.92H7.84v3.92h3.92v-3.92h1.97v-1.96h3.92v-1.96h5.88v5.88h3.92v1.96h1.96v-1.96h1.96v1.96h3.92v1.96H64.71v-1.96h5.88v-1.96h7.84v-5.88h5.88v1.96h1.96v1.96h1.97v3.92h3.92v-3.92H90.2v-1.96zm-13.73-5.89v1.96h-1.96v-3.92h1.96v1.96zm-37.25 1.96v1.97h-1.97v-1.97h1.97z"/>
  <path d="M84.31 75.495v1.96h-3.92v1.96h-9.8v1.96H29.41v-1.96h-9.8v-1.96h-3.92v-1.96H11.76v3.92H15.69v1.96h3.92v1.96h9.8v1.96H70.59v-1.96h9.8v-1.96h3.92v-1.96H88.24v-3.92h-1.97zM78.43 53.925v5.88h1.96v-9.8h-1.96v1.96zM76.47 48.045h1.96v1.96h-1.96zM74.51 46.085h1.96v1.96h-1.96zM64.71 34.315v11.77h9.8v-1.96h-7.84v-13.73h-3.92v1.96h1.96zM64.71 24.515h1.96v1.96h-1.96zM66.67 20.595v-1.96h-3.92v1.96h1.96zM62.75 26.475h1.96v1.96h-1.96zM62.75 22.555h1.96v1.96h-1.96z"/>
  <path d="M60.78 32.355h1.97v1.96h-1.97zM60.78 20.595h1.97v1.96h-1.97zM58.82 24.515v1.96h1.96v-3.92h-1.96zM52.94 38.235v5.89h-1.96v1.96H62.75v-1.96h-1.97V34.315h-1.96v9.81H54.9V34.315h-1.96v1.96zM50.98 32.355v1.96h1.96v-5.88h-1.96v1.96zM50.98 28.435v-1.96h-3.92v1.96h1.96zM49.02 22.555h1.96v-3.92h-1.96v1.96zM49.02 14.705h1.96v1.96h-1.96zM47.06 22.555h1.96v1.96h-1.96zM47.06 16.665h1.96v1.97h-1.96zM47.06 18.635H45.1v3.92h1.96v-1.96zM37.25 38.235v5.89h-1.96v1.96h11.77V28.435H45.1V44.125h-5.88V34.315h-1.97v1.96zM37.25 26.475h1.97v1.96h-1.97zM37.25 34.315v-1.96h-3.92v1.96h1.96zM35.29 24.515h1.96v1.96h-1.96zM35.29 20.595h1.96v1.96h-1.96zM33.33 28.435h1.96v1.96h-1.96zM33.33 22.555h1.96v1.96h-1.96zM31.37 26.475v1.96h1.96v-3.92h-1.96zM29.41 48.045h3.92v-13.73h-1.96v11.77h-5.88v1.96h1.96zM25.49 50.005v-1.96h-3.92v1.96h1.96zM21.57 50.005h-1.96v3.92h1.96v-1.96z"/>
</svg>