<svg xmlns="http://www.w3.org/2000/svg" viewBox="0 0 100 100">
  <path d="M58.82 30.39v-1.96H54.9v1.96h1.96zM52.94 30.39h1.96v1.96h-1.96zM52.94 34.31v-1.96h-3.92v1.96h1.96zM47.06 36.27h1.96v-1.96h-5.88v1.96h1.96z"/>
  <path d="M29.41 77.45h1.96v1.96H68.63v-1.96h1.96v-1.96h1.96V24.51h-1.96v-1.96h-1.96v-1.96H31.37v1.96h-1.96v1.96h-1.96V75.49h1.96v1.96zm1.96-7.84v-1.96h1.96v3.92h5.89v-3.92H35.29v-1.96H39.22v1.96h1.96v3.92h-1.96v1.96h-5.89v-1.96h-1.96v-1.96zm0-11.77v-1.96h1.96v3.92h5.89v-3.92H35.29v-1.96H39.22v1.96h1.96v3.92h-1.96v1.97h-5.89V59.8h-1.96v-1.96zm0-11.76v-1.96h1.96v3.92h5.89v-3.92h-1.97v-1.96h1.97v1.96h1.96v3.92h-1.96V50h-5.89v-1.96h-1.96v-1.96zm0-11.77v-5.88h1.96v-1.96h33.34v1.96h1.96v7.84h-1.96v1.97H33.33v-1.97h-1.96v-1.96zm37.26 11.77v1.96h-1.96V50h-5.89v-1.96h-1.96v-3.92h1.96v3.92h5.89v-3.92h-1.96v-1.96h1.96v1.96h1.96v1.96zm0 11.76v1.96h-1.96v1.97h-5.89V59.8h-1.96v-3.92h1.96v3.92h5.89v-3.92h-3.92v-1.96h3.92v1.96h1.96v1.96zm0 11.77v1.96h-1.96v1.96h-5.89v-1.96h-1.96v-3.92h1.96v3.92h5.89v-3.92h-1.96v-1.96h1.96v1.96h1.96v1.96zM45.1 71.57v-3.92h1.96v3.92h5.88v-3.92h-3.92v-1.96h3.92v1.96h1.96v3.92h-1.96v1.96h-5.88v-1.96H45.1zm0-13.73v-1.96h1.96v3.92h5.88v-3.92h-1.96v-1.96h1.96v1.96h1.96v3.92h-1.96v1.97h-5.88V59.8H45.1v-1.96zm0-11.76v-1.96h1.96v3.92h5.88v-3.92h-3.92v-1.96h3.92v1.96h1.96v3.92h-1.96V50h-5.88v-1.96H45.1v-1.96z"/>
</svg>