<svg xmlns="http://www.w3.org/2000/svg" viewBox="0 0 100 100">
  <path d="M87.25 49.02v-1.96h-5.88V45.1h-3.92v-1.96h-5.88v1.96H48.04v-7.84H59.8v-1.97H26.47v1.97h-3.92v1.96h-3.92v1.96h-5.89v1.96h-1.96v1.96H8.82v9.8h1.96v1.96h1.96v1.96h1.97v-1.96h3.92v1.96h-3.92v1.97h5.88v-7.85h1.96v-1.96h7.84v1.96h1.96v7.85h33.34v-7.85h1.96v-1.96h7.84v1.96h1.96v7.85h9.8v-1.97h1.97v-1.96h1.96v-7.84H87.25zm-35.29-1.96h1.96v1.96H50v-1.96h1.96zm-23.53-7.84v-1.96H46.08v7.84H34.31v-1.96h-3.92v-1.96h-3.92v-1.96h1.96zm35.3 19.6H34.31v-1.96h11.77v-9.8h1.96v9.8H63.73v1.96zm19.6 0h-3.92v-1.96h5.88v1.96h-1.96z"/>
  <path d="M75.49 60.79h1.96v1.96h-1.96zM73.53 56.86v1.96h1.96V54.9h-1.96zM71.57 62.75h-3.92v1.96h7.84v-1.96h-1.96zM73.53 54.9v-1.96h-3.92v1.96h1.96zM69.61 58.82v1.97h3.92v-1.97h-1.96zM69.61 54.9h-1.96v3.92h1.96v-1.96zM69.61 43.14h1.96v-1.96h-3.92v1.96zM65.69 60.79h1.96v1.96h-1.96zM65.69 41.18h1.96v-1.96h-3.92v1.96zM61.76 39.22h1.97v-1.96H59.8v1.96zM30.39 60.79h1.96v1.96h-1.96zM28.43 56.86v1.96h1.96V54.9h-1.96zM26.47 62.75h-3.92v1.96h7.84v-1.96h-1.96zM28.43 54.9v-1.96h-3.92v1.96h1.96zM24.51 58.82v1.97h3.92v-1.97h-1.96zM24.51 54.9h-1.96v3.92h1.96v-1.96z"/>
  <path d="M20.59 60.79h1.96v1.96h-1.96z"/>
</svg>