<svg xmlns="http://www.w3.org/2000/svg" viewBox="-5 -10 110 135">
  <path d="M1.117 96.527v3.46h57.91l26.887-.01c4.317 0 8.652-.09 12.965.027l.008-3.485-7.227.008.012-23.066c0-3.266-.066-6.54-.031-9.8h3.726c.004-2.505.063-5.02.016-7.524h-1.851c-.008-1.078-.032-2.156-.016-3.235h-1.969c0-1.316.031-2.648-.012-3.96h-1.734l.027-6.934h-3.375l.008 6.949c-.601 0-1.203-.008-1.808.016l-.012 3.91c-.692.012-1.375.023-2.063.023 0 1.086.032 2.172.008 3.254-.734.012-1.465.016-2.195.012v7.512h2.629c.039 2.609.047 5.222.023 7.832h-3.437c-.012-1.371-.024-2.735-.016-4.098l-5.875.008.023-19.965h3.106l.004-7.266h-2.383l.004-3.383a98.823 98.823 0 0 0-2.406.008v-3.734a54.986 54.986 0 0 0-1.965-.016l-.012-5.539-3.242.016v5.507l-1.758.008v3.72l-1.86.01v3.4l-2.155.003v7.277c1.12-.007 2.27-.05 3.394.016v7.121l-3.46-.008-.009-3.414h-3.671V31.035c1.18-.012 2.355-.023 3.535-.015l.015-7.028c-.976-.011-1.949-.015-2.93-.015l.008-5.625h-2.449v-3.453H53.5l.004-3.516h-1.8V8.34c.21-.04.945-.117 1.07-.258 0-.082-.024-.183.035-.25.227-.25.93-.383 1.258-.547l-.024-.605c.77-.274 2.282-1.133 2.871-1.723.235-.043.543-.062.746-.18l-.144-.16c.437-.27 1.324.012 1.55-.566l-.023-.082c-.582-.211-2.3-.516-2.613-1.043l.047-.196c-.363-.378-1.566-.246-1.973-.683l.028-.211c-.258-.305-1.633-.484-1.676-.758l.07-.101c-.34-.239-.879-.258-1.16-.461-.176-.125-.067-.301-.156-.418-.118-.153-2.903-.067-3.301-.063v11.328l-1.863.016a265.446 265.446 0 0 0 0 3.527l-2.024.008c-.008 1.148.016 2.3 0 3.45h-2.176v5.597l-2.992.012.016 7.062 3.613.027-.023 20.125h-3.672c-.067 1.141-.012 2.297-.024 3.434-1.195.012-2.386.012-3.582 0 0-2.387-.027-4.777 0-7.164h3.5c0-2.414-.062-4.84-.011-7.258h-2.055v-3.418h-1.863c.003-1.227.03-2.46.015-3.687l-1.84-.024v-5.527l-3.156.008-.023 5.507-2.04.024v3.71h-2.503v3.368h-2.32c0 2.422-.044 4.855.011 7.277 1.043 0 2.082-.004 3.125.004l-.008 11.742c.016 2.754.024 5.508.012 8.266l-6.707.008v3.906h-3.242v-7.735c.996.012 1.988.012 2.98.004V56.11l-2.101-.008-.024-3.234h-1.941v-3.953h-1.742V42.03h-3.153c-.023 2.293-.05 4.605.016 6.89H8.879v3.938c-.73.008-1.453.016-2.183.016L6.68 56.14l-2.055.008v7.46l3.739.032.011 21.344c0 3.84.051 7.684.004 11.523l-7.261.008zm59.766-32.758-.035 3.613c-1.168.051-2.36.012-3.535.004V63.77h3.57zM51.895 33.16l.008 7.008c-1.223.031-2.45.008-3.672.012l-.008-7.016c1.223-.016 2.45 0 3.676 0zm0 23.348c-.024 1.195-.031 2.39-.031 3.586-1.215.016-2.43.016-3.645.004l-.015-3.586h3.69zm-.035 7.254v3.625c-1.203.062-2.426.012-3.625 0v-3.629c1.207-.016 2.418 0 3.625 0zM45.05 82.977v-2.649h3.016c-.008-.417-.114-2.343.078-2.57 1.3-.008 2.601 0 3.902.012.024.855.012 1.715.016 2.57h2.945l.012 2.824 2.191.008c-.023 4.426-.012 8.852.028 13.273H42.793v-13.46c.746-.028 1.5-.012 2.25-.009z"/>
</svg>