<svg xmlns="http://www.w3.org/2000/svg" xml:space="preserve" viewBox="0 0 1000 1000">
    <path d="M802.9 150.5v46.6h-46.6v46.6h-46.6v-46.6h-46.6v-46.6h-46.6v186.4h-46.6v-46.6h-46.6v-46.6H336.9v46.6h-46.6v46.6h-46.6v46.6h-46.6v186.4h46.6v233h46.6v46.6h93.2v-46.6h-46.6v-233h46.6v-46.6h46.6v-46.6h46.6v46.6h46.6v46.6h46.6v46.6h46.6v186.4h46.6v46.6h93.2v-46.6h-46.6V663.1h46.6V523.3h46.6v-93.2h46.6V150.5h-46.6zm-93.2 186.4h-46.6v-46.6h46.6v46.6zm93.2 0h-46.6v-46.6h46.6v46.6zM197.1 150.5h46.6v46.6h-46.6z"/>
    <path d="M150.5 197.1h46.6v186.4h-46.6z"/>
</svg>