<svg xmlns="http://www.w3.org/2000/svg" viewBox="-5 -10 110 110">
  <path d="M31.504 81.621h2.148v4.297h2.266v-2.149h2.148v2.149h-2.148v2.148h2.148v2.149h4.297v-2.149h2.266v-2.148h2.148v2.148H44.63v2.149h2.148v2.265h8.711v-2.265h2.149v-2.149h2.148v2.149h4.414v-2.149h2.149v-6.445h2.148v4.297h2.148v2.148h2.266v2.149h4.297v-2.149h2.148v-2.148h2.266v-6.563h-2.266v-2.148h-2.148v-2.148h2.148V72.91h2.266v-2.265h2.148v-4.297h2.149V53.223h-2.149v-6.446h-2.148V44.63h4.297v-2.266h2.148v-4.297h-2.148v-2.148H14.082v2.148h-2.149v4.297h2.149v2.266h4.414v2.148H16.23v6.446h-2.148v13.125h2.148v4.297h2.266v2.265h2.148v2.149h2.149v2.148h-2.149v2.148h-2.148v6.563h2.148v2.148h2.149v2.149h4.414v-2.149h2.148v-2.148h2.148zm19.57-30.551h2.148v2.148h2.266v-4.297h-4.414zm-32.578 2.148h2.148v-6.445h4.297v-2.148h2.266v2.148h2.148v4.297h-2.148v4.414h2.148v2.148h4.297v-2.148h2.266V51.07h-2.266v-4.297h2.266v-2.148h4.297v10.859h-2.149v6.445h2.149v2.266h6.562v-2.266h2.149v-6.445h-2.149v-10.86h4.297v4.298h-2.148v4.297h2.148v2.265h4.414V53.22h2.149v-4.297h-2.149v-4.297h2.149v2.148h2.148v-2.148h2.148v2.148h6.563v2.149h4.414v2.148h2.148v4.414h4.297v-2.266h2.266v4.415h-4.414v2.148h-2.149v8.71H72.91v4.415h-2.266v2.148h-2.148v2.149h-4.297v-2.149h-2.265v-2.148h-2.149v2.148h-4.297V70.64h-2.265v-6.445h-4.297v4.297h-4.297v6.562h-2.266v-2.148h-2.148V70.64h-2.149v2.266h-2.148v4.297h-2.266v2.148h-4.296v-2.148h-2.149v-2.149h-4.414v-2.148h-2.148v-4.414h-2.149v-4.297h-2.265V53.218zm23.867 6.563v-2.149h-2.148v-2.148h2.148V44.625h-2.148V42.36h-4.297v2.266h-2.266v2.148h-4.297V42.36h-2.148v-4.297h28.28v2.149h-2.265v4.414h-2.148v-2.266h-4.297v2.266h-2.149v10.859h2.149v6.445h-2.149v-2.148zm-10.859-4.297v-2.266h-2.148V51.07h4.296v4.414zm32.695 23.867h-2.266v6.563h-2.148v-2.149h-2.148v-6.562h2.148v-2.149h2.148v2.149H64.2zm-10.98 4.414h-2.148v2.149h-4.297v-4.297h2.148v-4.414h2.148v-2.149h-2.148v2.149h-2.148v4.414h-2.149v-6.563h2.149V70.64h2.148v-2.148h2.148v4.414h2.149v2.148h2.265v4.297H53.22zM42.36 85.914h-2.148v-4.297h-2.149v-8.711h2.149v4.297h2.148zm-17.422 0h-4.297V79.35h2.148v-2.148h2.149v4.414h2.265v2.148h-2.265zm47.973-47.852v2.148h2.148v2.148H55.49V40.21h4.297v-2.148h2.149v2.148h8.71v-2.148zM20.645 40.21h4.297v2.148H16.23V40.21zm63.125 0v2.148h-2.148V40.21zm-2.148 21.719V59.78h2.148v2.148zm0-10.86h-2.266v-2.147h-2.148v-2.149h-2.149v-2.148h2.149v2.148h2.148v2.148h2.266zM68.497 77.204h2.148v2.148h-2.148zm8.71 6.562H75.06v4.297h-2.148v-2.148h-2.266V79.35h2.266v2.266h4.297zM75.06 27.203v2.149h-2.148v-2.149zm0 2.149h2.148v-2.149H75.06v-2.265h-2.148v2.265h-2.266v2.149h2.266V31.5h2.148zm-15.273-4.414h-2.148v-2.149h2.148zm-2.148 0v2.265h2.148v-2.265h2.148v-2.149h-2.148v-2.148h-2.148v2.148h-2.149v2.149zm-26.133 2.265v-2.265h-2.149v-2.149h-4.414v2.149h-2.148v4.414h2.148V31.5h4.414v-2.148h2.149zm-2.149-2.265v4.414h-4.414v-4.414zM42.364 11.93V9.78h6.563v6.446h-6.563zm0-2.149h-2.148v6.446h2.148v2.265h6.563v-2.265h2.148V9.78h-2.148V7.633h-6.563z"/>
</svg>