<svg xmlns="http://www.w3.org/2000/svg" viewBox="0 0 100 100">
  <path d="M77.45 43.14v7.84h-1.96v3.92h-5.88v-3.92h-1.96v-1.96h3.92v-5.88h5.88v-3.92h-5.88v1.96h-3.92v-3.92H26.47v3.92h-3.92v7.84h1.96v7.84h3.92V60.79h3.92v3.92h3.92v3.92H59.8v-3.92H63.73v-3.92h3.92V56.86h1.96v1.96h7.84V54.9h1.96v-3.92h1.96v-7.84h-3.92zM34.31 58.82V54.9h-1.96v-3.92h-1.96v-7.84h1.96v7.84h1.96v3.92h1.96v3.92h1.96v1.97h-1.96v-1.97h-1.96zM75.49 70.59H18.63v3.92h1.96v1.96h3.92v1.96h3.92v1.96h5.88v1.96H63.73v-1.96h5.88v-1.96h3.92v-1.96h3.92v-1.96h1.96v-3.92h-3.92zm-50.98 1.96h1.96v1.96h-1.96v-1.96zm7.84 5.88v-1.96h-3.92v-1.96h3.92v1.96h5.88v1.96h-5.88zM51.96 19.61h1.96v1.96h-1.96zM51.96 23.53v-1.96H50v3.92h1.96zM48.04 25.49H50v1.96h-1.96zM46.08 33.33h1.96v1.96h-1.96zM46.08 27.45h1.96v1.96h-1.96zM46.08 29.41h-1.96v3.92h1.96v-1.96zM46.08 19.61v-1.96h-3.92v1.96h1.96zM40.2 33.33h1.96v1.96H40.2zM42.16 21.57v-1.96H40.2v3.92h1.96zM38.23 33.33h1.97v-3.92h-1.97v1.96zM38.23 23.53h1.97v1.96h-1.97zM38.23 25.49h-1.96v3.92h1.96v-1.96z"/>
</svg>