<svg xmlns="http://www.w3.org/2000/svg" viewBox="0 0 100 100">
  <path d="M57 30h18v2h6v2h-4v2h4v2h-2v6h2v2H65v-2h12v-6h-2v-4h-2v-2H59v2h-4v-2h2v-2zM47 34h8v2h-8v-2z"/>
  <path d="M63 34h4v2h2v-2h4v2h-2v2h-6v-2h-2v-2zM81 34h2v2h-2v-2zM45 36h2v4h-2v-4zM61 36h2v2h-2v-2zM53 38h2v2h-2v-2zM47 40h6v2h-2v2h-2v-2h-2v-2zM61 40h2v2h-2v-2zM71 40h2v2h-2v-2zM27 44h12v2H27v-2zM47 44h2v2h-2v-2zM25 46h2v2h-2v-2zM39 46h8v2h-8v-2zM63 46h2v2h-2v-2zM81 46h2v10h-2V46zM23 48h2v14h-2v4h-2V56h2v-8zM61 48h2v12h-2V48zM69 48h2v2h-2v-2zM77 48h2v2h-2v-2zM65 54h2v2h-2v-2zM67 56h14v2h-4v2h-2v-2h-8v-2zM63 60h12v2h-4v2h-2v-2h-6v-2zM25 62h2v2h2v10h4v-8h2v2h6v2h-6v4h2v2h-2v2h-8V66h-2v-4zM67 64h2v2h-2v-2zM23 66h2v2h-2v-2zM65 66v2h-2v-2h-2v8h-4V64h-2v6H41v2h4v2h2v-2h8v6h8v-2h4V66h-2zm0 6h-2v-2h2v2zM39 74h2v2h-2v-2zM43 74h2v2h-2v-2zM37 76h2v2h-2v-2zM41 76h2v2h-2v-2zM75 32v-6h-4v2h2v2h-2v-2h-2v2h-4v-4h-4v2h2v2h-2v-2h-2v2h-2v2h16z"/>
  <path d="M47 40h6v2h2v6h-4v-2h-4v-2h2v-2h-2v-2zM27 44h4v6h-2v2h-2v2h-2v8l-2-6v-8h2v-2h2v-2zM39 50h8v6h-4v2h-4v4h-4v-4h2v-2h-2v-4h4v-2zM49 58h4v4h-4v-4zM57 74v-4h2v-4h-2v-2h-2v6h-4v-2h-2v-2h-4v2h-2v2h-2v2h4v2h2v-2h8l2 2z"/>
</svg>