<svg xmlns="http://www.w3.org/2000/svg" viewBox="0 0 50 50">
  <path d="M35 12h2v2h-2zM33 10h2v2h-2zM25 8h8v2h-8zM23 10h2v2h-2zM21 12h2v2h-2zM19 14h2v6h-2zM21 20h2v2h-2zM23 22h2v2h-2zM15 24h8v2h-8zM11 22h4v2h-4zM9 20h2v2H9zM7 22h2v10H7zM9 32h2v2H9zM11 34h2v2h-2zM13 36h2v2h-2zM15 38h2v2h-2zM17 40h12v2H17zM29 38h4v2h-4zM33 36h2v2h-2zM35 34h2v2h-2zM37 28h2v6h-2zM35 26h2v2h-2zM33 24h2v2h-2zM31 22h2v2h-2zM37 14h2v2h-2zM39 16h2v2h-2zM41 18h2v2h-2zM33 20h8v2h-8zM29 12h2v2h-2zM33 14h2v2h-2zM31 16h2v4h-2zM25 26h2v2h-2zM27 28h2v2h-2zM29 30h2v4h-2zM19 34h10v2H19zM17 32h2v2h-2zM15 30h2v2h-2z"/>
</svg>