<svg xmlns="http://www.w3.org/2000/svg" viewBox="0 0 100 100">
    <path d="M81.544 57.277h-2.426V54.85h-2.425v2.426h-2.426v2.425H69.404v-4.851h2.438V50h2.425v-2.425h2.426v-4.852h-2.426v-2.425h-2.425v4.851h-2.438v2.426h-4.851v-2.426h2.425v-7.277h-2.425v-2.425h-2.426v-2.426h-2.425v4.851h2.425v2.426h-2.425v-2.426h-2.426v-4.851h2.426V28.158h-2.426v-2.425h-2.425v-2.426h-2.426v-2.425H50v7.276h2.425v7.289H50v4.851h-2.425v2.425h-2.426v2.426h-2.425v-2.426h-2.438v-4.851h2.438v-4.851h2.425v-2.437H40.286v2.437H37.86v2.426h-2.425v2.425h-2.426v7.277h2.426v2.426h2.425v4.851h-2.425v4.851h-2.426V54.85h-4.851v-2.425h2.426V50h-2.426v-2.425h-2.425v-2.426h2.425v-4.851h-2.425v2.425h-2.426V50h-2.425v7.277h2.425v2.425h4.851v2.438h2.426v2.425h-2.426V62.14h-7.276v-2.438h-2.426V64.565h2.426v2.426h2.425v4.851h2.426v2.425h2.425v2.426h2.426v2.425h4.851v2.426h2.425v2.425H64.553v-2.425h2.425v-2.426H71.842v-2.425h2.425v-4.851h2.426v-2.426h2.425v-4.851h2.426V59.702h2.425v-2.425h-2.425zm-48.535 2.425h2.426v2.438h4.851v2.425h2.438v2.426h2.425V62.14h-2.425v-2.438h-2.438v-2.425h2.438V54.85h2.425v2.426h-2.425v2.425h4.851v-2.425H50V54.85h2.425v-9.702H50v-2.426h2.425v2.426h2.426v2.426h2.425V50h2.426v4.851h-2.426v4.851h-2.425v2.438h2.425v2.425h2.426V59.702h2.425v-2.425h2.426v2.425h-2.426V64.565h-2.425v2.426h4.851v-2.426h2.425v2.426h-2.425v4.851h-2.426v2.425h-2.425v2.426H42.724v-2.426h-2.438v-2.425H37.86V66.99h-2.425V62.14h-2.426v-2.438z"/><path d="M79.118 52.426h2.425v2.425h-2.425zM71.842 35.447h-2.438v4.851h2.438v-2.426zM50 16.031h-2.425v4.851H50v-2.426zM37.86 25.733h2.425v2.425H37.86zM23.307 37.872h2.425v2.426h-2.425zM16.031 57.277h2.426v2.425h-2.426z"/>
</svg>