<svg xmlns="http://www.w3.org/2000/svg" viewBox="0 0 100 100">
  <path d="M11 6h1v1h-1zM12 6h1v1h-1zM13 6h1v1h-1zM14 6h1v1h-1zM15 6h1v1h-1zM16 6h1v1h-1zM17 6h1v1h-1zM18 6h1v1h-1zM11 7h1v1h-1zM12 7h1v1h-1zM13 7h1v1h-1zM14 7h1v1h-1zM15 7h1v1h-1zM16 7h1v1h-1zM17 7h1v1h-1zM18 7h1v1h-1zM15 8h1v1h-1zM16 8h1v1h-1zM17 8h1v1h-1zM18 8h1v1h-1zM19 8h1v1h-1zM20 8h1v1h-1zM21 8h1v1h-1zM22 8h1v1h-1zM15 9h1v1h-1zM16 9h1v1h-1zM17 9h1v1h-1zM18 9h1v1h-1zM19 9h1v1h-1zM20 9h1v1h-1zM21 9h1v1h-1zM22 9h1v1h-1zM19 10h1v1h-1zM20 10h1v1h-1zM21 10h1v1h-1zM22 10h1v1h-1zM23 10h1v1h-1zM24 10h1v1h-1zM25 10h1v1h-1zM26 10h1v1h-1zM19 11h1v1h-1zM20 11h1v1h-1zM21 11h1v1h-1zM22 11h1v1h-1zM23 11h1v1h-1zM24 11h1v1h-1zM25 11h1v1h-1zM26 11h1v1h-1zM23 12h1v1h-1zM24 12h1v1h-1zM25 12h1v1h-1zM26 12h1v1h-1zM27 12h1v1h-1zM28 12h1v1h-1zM29 12h1v1h-1zM30 12h1v1h-1zM23 13h1v1h-1zM24 13h1v1h-1zM25 13h1v1h-1zM26 13h1v1h-1zM27 13h1v1h-1zM28 13h1v1h-1zM29 13h1v1h-1zM30 13h1v1h-1zM27 14h1v1h-1zM28 14h1v1h-1zM29 14h1v1h-1zM30 14h1v1h-1zM31 14h1v1h-1zM32 14h1v1h-1zM33 14h1v1h-1zM34 14h1v1h-1zM27 15h1v1h-1zM28 15h1v1h-1zM29 15h1v1h-1zM30 15h1v1h-1zM31 15h1v1h-1zM32 15h1v1h-1zM33 15h1v1h-1zM34 15h1v1h-1zM29 16h1v1h-1zM30 16h1v1h-1zM31 16h1v1h-1zM32 16h1v1h-1zM33 16h1v1h-1zM34 16h1v1h-1zM35 16h1v1h-1zM36 16h1v1h-1zM37 16h1v1h-1zM38 16h1v1h-1zM29 17h1v1h-1zM30 17h1v1h-1zM31 17h1v1h-1zM32 17h1v1h-1zM33 17h1v1h-1zM34 17h1v1h-1zM35 17h1v1h-1zM36 17h1v1h-1zM37 17h1v1h-1zM38 17h1v1h-1zM31 18h1v1h-1zM32 18h1v1h-1zM33 18h1v1h-1zM34 18h1v1h-1zM35 18h1v1h-1zM36 18h1v1h-1zM39 18h1v1h-1zM40 18h1v1h-1zM41 18h1v1h-1zM42 18h1v1h-1zM31 19h1v1h-1zM32 19h1v1h-1zM33 19h1v1h-1zM34 19h1v1h-1zM35 19h1v1h-1zM36 19h1v1h-1zM39 19h1v1h-1zM40 19h1v1h-1zM41 19h1v1h-1zM42 19h1v1h-1zM33 20h1v1h-1zM34 20h1v1h-1zM35 20h1v1h-1zM36 20h1v1h-1zM37 20h1v1h-1zM38 20h1v1h-1zM43 20h1v1h-1zM44 20h1v1h-1zM45 20h1v1h-1zM46 20h1v1h-1zM33 21h1v1h-1zM34 21h1v1h-1zM35 21h1v1h-1zM36 21h1v1h-1zM37 21h1v1h-1zM38 21h1v1h-1zM43 21h1v1h-1zM44 21h1v1h-1zM45 21h1v1h-1zM46 21h1v1h-1zM35 22h1v1h-1zM36 22h1v1h-1zM37 22h1v1h-1zM38 22h1v1h-1zM39 22h1v1h-1zM40 22h1v1h-1zM47 22h1v1h-1zM48 22h1v1h-1zM49 22h1v1h-1zM50 22h1v1h-1zM51 22h1v1h-1zM52 22h1v1h-1zM53 22h1v1h-1zM54 22h1v1h-1zM35 23h1v1h-1zM36 23h1v1h-1zM37 23h1v1h-1zM38 23h1v1h-1zM39 23h1v1h-1zM40 23h1v1h-1zM47 23h1v1h-1zM48 23h1v1h-1zM49 23h1v1h-1zM50 23h1v1h-1zM51 23h1v1h-1zM52 23h1v1h-1zM53 23h1v1h-1zM54 23h1v1h-1zM37 24h1v1h-1zM38 24h1v1h-1zM39 24h1v1h-1zM40 24h1v1h-1zM41 24h1v1h-1zM42 24h1v1h-1zM49 24h1v1h-1zM50 24h1v1h-1zM51 24h1v1h-1zM52 24h1v1h-1zM53 24h1v1h-1zM54 24h1v1h-1zM55 24h1v1h-1zM56 24h1v1h-1zM57 24h1v1h-1zM58 24h1v1h-1zM59 24h1v1h-1zM60 24h1v1h-1zM37 25h1v1h-1zM38 25h1v1h-1zM39 25h1v1h-1zM40 25h1v1h-1zM41 25h1v1h-1zM42 25h1v1h-1zM49 25h1v1h-1zM50 25h1v1h-1zM51 25h1v1h-1zM52 25h1v1h-1zM53 25h1v1h-1zM54 25h1v1h-1zM55 25h1v1h-1zM56 25h1v1h-1zM57 25h1v1h-1zM58 25h1v1h-1zM59 25h1v1h-1zM60 25h1v1h-1zM39 26h1v1h-1zM40 26h1v1h-1zM41 26h1v1h-1zM42 26h1v1h-1zM49 26h1v1h-1zM50 26h1v1h-1zM51 26h1v1h-1zM52 26h1v1h-1zM53 26h1v1h-1zM54 26h1v1h-1zM55 26h1v1h-1zM56 26h1v1h-1zM61 26h1v1h-1zM62 26h1v1h-1zM63 26h1v1h-1zM64 26h1v1h-1zM39 27h1v1h-1zM40 27h1v1h-1zM41 27h1v1h-1zM42 27h1v1h-1zM49 27h1v1h-1zM50 27h1v1h-1zM51 27h1v1h-1zM52 27h1v1h-1zM53 27h1v1h-1zM54 27h1v1h-1zM55 27h1v1h-1zM56 27h1v1h-1zM61 27h1v1h-1zM62 27h1v1h-1zM63 27h1v1h-1zM64 27h1v1h-1zM39 28h1v1h-1zM40 28h1v1h-1zM41 28h1v1h-1zM42 28h1v1h-1zM49 28h1v1h-1zM50 28h1v1h-1zM51 28h1v1h-1zM52 28h1v1h-1zM53 28h1v1h-1zM54 28h1v1h-1zM55 28h1v1h-1zM56 28h1v1h-1zM63 28h1v1h-1zM64 28h1v1h-1zM65 28h1v1h-1zM66 28h1v1h-1zM67 28h1v1h-1zM68 28h1v1h-1zM39 29h1v1h-1zM40 29h1v1h-1zM41 29h1v1h-1zM42 29h1v1h-1zM49 29h1v1h-1zM50 29h1v1h-1zM51 29h1v1h-1zM52 29h1v1h-1zM53 29h1v1h-1zM54 29h1v1h-1zM55 29h1v1h-1zM56 29h1v1h-1zM63 29h1v1h-1zM64 29h1v1h-1zM65 29h1v1h-1zM66 29h1v1h-1zM67 29h1v1h-1zM68 29h1v1h-1zM37 30h1v1h-1zM38 30h1v1h-1zM39 30h1v1h-1zM40 30h1v1h-1zM41 30h1v1h-1zM42 30h1v1h-1zM49 30h1v1h-1zM50 30h1v1h-1zM51 30h1v1h-1zM52 30h1v1h-1zM53 30h1v1h-1zM54 30h1v1h-1zM55 30h1v1h-1zM56 30h1v1h-1zM63 30h1v1h-1zM64 30h1v1h-1zM65 30h1v1h-1zM66 30h1v1h-1zM67 30h1v1h-1zM68 30h1v1h-1zM69 30h1v1h-1zM70 30h1v1h-1zM71 30h1v1h-1zM72 30h1v1h-1zM37 31h1v1h-1zM38 31h1v1h-1zM39 31h1v1h-1zM40 31h1v1h-1zM41 31h1v1h-1zM42 31h1v1h-1zM49 31h1v1h-1zM50 31h1v1h-1zM51 31h1v1h-1zM52 31h1v1h-1zM53 31h1v1h-1zM54 31h1v1h-1zM55 31h1v1h-1zM56 31h1v1h-1zM63 31h1v1h-1zM64 31h1v1h-1zM65 31h1v1h-1zM66 31h1v1h-1zM67 31h1v1h-1zM68 31h1v1h-1zM69 31h1v1h-1zM70 31h1v1h-1zM71 31h1v1h-1zM72 31h1v1h-1zM37 32h1v1h-1zM38 32h1v1h-1zM39 32h1v1h-1zM40 32h1v1h-1zM41 32h1v1h-1zM42 32h1v1h-1zM43 32h1v1h-1zM44 32h1v1h-1zM51 32h1v1h-1zM52 32h1v1h-1zM53 32h1v1h-1zM54 32h1v1h-1zM55 32h1v1h-1zM56 32h1v1h-1zM63 32h1v1h-1zM64 32h1v1h-1zM65 32h1v1h-1zM66 32h1v1h-1zM67 32h1v1h-1zM68 32h1v1h-1zM69 32h1v1h-1zM70 32h1v1h-1zM71 32h1v1h-1zM72 32h1v1h-1zM73 32h1v1h-1zM74 32h1v1h-1zM37 33h1v1h-1zM38 33h1v1h-1zM39 33h1v1h-1zM40 33h1v1h-1zM41 33h1v1h-1zM42 33h1v1h-1zM43 33h1v1h-1zM44 33h1v1h-1zM51 33h1v1h-1zM52 33h1v1h-1zM53 33h1v1h-1zM54 33h1v1h-1zM55 33h1v1h-1zM56 33h1v1h-1zM63 33h1v1h-1zM64 33h1v1h-1zM65 33h1v1h-1zM66 33h1v1h-1zM67 33h1v1h-1zM68 33h1v1h-1zM69 33h1v1h-1zM70 33h1v1h-1zM71 33h1v1h-1zM72 33h1v1h-1zM73 33h1v1h-1zM74 33h1v1h-1zM35 34h1v1h-1zM36 34h1v1h-1zM37 34h1v1h-1zM38 34h1v1h-1zM39 34h1v1h-1zM40 34h1v1h-1zM41 34h1v1h-1zM42 34h1v1h-1zM43 34h1v1h-1zM44 34h1v1h-1zM51 34h1v1h-1zM52 34h1v1h-1zM53 34h1v1h-1zM54 34h1v1h-1zM55 34h1v1h-1zM56 34h1v1h-1zM65 34h1v1h-1zM66 34h1v1h-1zM67 34h1v1h-1zM68 34h1v1h-1zM69 34h1v1h-1zM70 34h1v1h-1zM71 34h1v1h-1zM72 34h1v1h-1zM75 34h1v1h-1zM76 34h1v1h-1zM35 35h1v1h-1zM36 35h1v1h-1zM37 35h1v1h-1zM38 35h1v1h-1zM39 35h1v1h-1zM40 35h1v1h-1zM41 35h1v1h-1zM42 35h1v1h-1zM43 35h1v1h-1zM44 35h1v1h-1zM51 35h1v1h-1zM52 35h1v1h-1zM53 35h1v1h-1zM54 35h1v1h-1zM55 35h1v1h-1zM56 35h1v1h-1zM65 35h1v1h-1zM66 35h1v1h-1zM67 35h1v1h-1zM68 35h1v1h-1zM69 35h1v1h-1zM70 35h1v1h-1zM71 35h1v1h-1zM72 35h1v1h-1zM75 35h1v1h-1zM76 35h1v1h-1zM35 36h1v1h-1zM36 36h1v1h-1zM37 36h1v1h-1zM38 36h1v1h-1zM39 36h1v1h-1zM40 36h1v1h-1zM41 36h1v1h-1zM42 36h1v1h-1zM43 36h1v1h-1zM44 36h1v1h-1zM51 36h1v1h-1zM52 36h1v1h-1zM53 36h1v1h-1zM54 36h1v1h-1zM55 36h1v1h-1zM56 36h1v1h-1zM57 36h1v1h-1zM58 36h1v1h-1zM65 36h1v1h-1zM66 36h1v1h-1zM67 36h1v1h-1zM68 36h1v1h-1zM69 36h1v1h-1zM70 36h1v1h-1zM71 36h1v1h-1zM72 36h1v1h-1zM77 36h1v1h-1zM78 36h1v1h-1zM35 37h1v1h-1zM36 37h1v1h-1zM37 37h1v1h-1zM38 37h1v1h-1zM39 37h1v1h-1zM40 37h1v1h-1zM41 37h1v1h-1zM42 37h1v1h-1zM43 37h1v1h-1zM44 37h1v1h-1zM51 37h1v1h-1zM52 37h1v1h-1zM53 37h1v1h-1zM54 37h1v1h-1zM55 37h1v1h-1zM56 37h1v1h-1zM57 37h1v1h-1zM58 37h1v1h-1zM65 37h1v1h-1zM66 37h1v1h-1zM67 37h1v1h-1zM68 37h1v1h-1zM69 37h1v1h-1zM70 37h1v1h-1zM71 37h1v1h-1zM72 37h1v1h-1zM77 37h1v1h-1zM78 37h1v1h-1zM33 38h1v1h-1zM34 38h1v1h-1zM35 38h1v1h-1zM36 38h1v1h-1zM37 38h1v1h-1zM38 38h1v1h-1zM39 38h1v1h-1zM40 38h1v1h-1zM41 38h1v1h-1zM42 38h1v1h-1zM43 38h1v1h-1zM44 38h1v1h-1zM51 38h1v1h-1zM52 38h1v1h-1zM53 38h1v1h-1zM54 38h1v1h-1zM55 38h1v1h-1zM56 38h1v1h-1zM57 38h1v1h-1zM58 38h1v1h-1zM65 38h1v1h-1zM66 38h1v1h-1zM67 38h1v1h-1zM68 38h1v1h-1zM69 38h1v1h-1zM70 38h1v1h-1zM71 38h1v1h-1zM72 38h1v1h-1zM77 38h1v1h-1zM78 38h1v1h-1zM79 38h1v1h-1zM80 38h1v1h-1zM33 39h1v1h-1zM34 39h1v1h-1zM35 39h1v1h-1zM36 39h1v1h-1zM37 39h1v1h-1zM38 39h1v1h-1zM39 39h1v1h-1zM40 39h1v1h-1zM41 39h1v1h-1zM42 39h1v1h-1zM43 39h1v1h-1zM44 39h1v1h-1zM51 39h1v1h-1zM52 39h1v1h-1zM53 39h1v1h-1zM54 39h1v1h-1zM55 39h1v1h-1zM56 39h1v1h-1zM57 39h1v1h-1zM58 39h1v1h-1zM65 39h1v1h-1zM66 39h1v1h-1zM67 39h1v1h-1zM68 39h1v1h-1zM69 39h1v1h-1zM70 39h1v1h-1zM71 39h1v1h-1zM72 39h1v1h-1zM77 39h1v1h-1zM78 39h1v1h-1zM79 39h1v1h-1zM80 39h1v1h-1zM5 40h1v1H5zM6 40h1v1H6zM7 40h1v1H7zM8 40h1v1H8zM9 40h1v1H9zM10 40h1v1h-1zM11 40h1v1h-1zM12 40h1v1h-1zM33 40h1v1h-1zM34 40h1v1h-1zM35 40h1v1h-1zM36 40h1v1h-1zM37 40h1v1h-1zM38 40h1v1h-1zM39 40h1v1h-1zM40 40h1v1h-1zM41 40h1v1h-1zM42 40h1v1h-1zM43 40h1v1h-1zM44 40h1v1h-1zM51 40h1v1h-1zM52 40h1v1h-1zM53 40h1v1h-1zM54 40h1v1h-1zM55 40h1v1h-1zM56 40h1v1h-1zM57 40h1v1h-1zM58 40h1v1h-1zM65 40h1v1h-1zM66 40h1v1h-1zM67 40h1v1h-1zM68 40h1v1h-1zM69 40h1v1h-1zM70 40h1v1h-1zM71 40h1v1h-1zM72 40h1v1h-1zM77 40h1v1h-1zM78 40h1v1h-1zM79 40h1v1h-1zM80 40h1v1h-1zM81 40h1v1h-1zM82 40h1v1h-1zM5 41h1v1H5zM6 41h1v1H6zM7 41h1v1H7zM8 41h1v1H8zM9 41h1v1H9zM10 41h1v1h-1zM11 41h1v1h-1zM12 41h1v1h-1zM33 41h1v1h-1zM34 41h1v1h-1zM35 41h1v1h-1zM36 41h1v1h-1zM37 41h1v1h-1zM38 41h1v1h-1zM39 41h1v1h-1zM40 41h1v1h-1zM41 41h1v1h-1zM42 41h1v1h-1zM43 41h1v1h-1zM44 41h1v1h-1zM51 41h1v1h-1zM52 41h1v1h-1zM53 41h1v1h-1zM54 41h1v1h-1zM55 41h1v1h-1zM56 41h1v1h-1zM57 41h1v1h-1zM58 41h1v1h-1zM65 41h1v1h-1zM66 41h1v1h-1zM67 41h1v1h-1zM68 41h1v1h-1zM69 41h1v1h-1zM70 41h1v1h-1zM71 41h1v1h-1zM72 41h1v1h-1zM77 41h1v1h-1zM78 41h1v1h-1zM79 41h1v1h-1zM80 41h1v1h-1zM81 41h1v1h-1zM82 41h1v1h-1zM7 42h1v1H7zM8 42h1v1H8zM9 42h1v1H9zM10 42h1v1h-1zM11 42h1v1h-1zM12 42h1v1h-1zM13 42h1v1h-1zM14 42h1v1h-1zM15 42h1v1h-1zM16 42h1v1h-1zM31 42h1v1h-1zM32 42h1v1h-1zM33 42h1v1h-1zM34 42h1v1h-1zM35 42h1v1h-1zM36 42h1v1h-1zM37 42h1v1h-1zM38 42h1v1h-1zM39 42h1v1h-1zM40 42h1v1h-1zM41 42h1v1h-1zM42 42h1v1h-1zM43 42h1v1h-1zM44 42h1v1h-1zM51 42h1v1h-1zM52 42h1v1h-1zM53 42h1v1h-1zM54 42h1v1h-1zM55 42h1v1h-1zM56 42h1v1h-1zM57 42h1v1h-1zM58 42h1v1h-1zM65 42h1v1h-1zM66 42h1v1h-1zM67 42h1v1h-1zM68 42h1v1h-1zM69 42h1v1h-1zM70 42h1v1h-1zM71 42h1v1h-1zM72 42h1v1h-1zM77 42h1v1h-1zM78 42h1v1h-1zM79 42h1v1h-1zM80 42h1v1h-1zM81 42h1v1h-1zM82 42h1v1h-1zM83 42h1v1h-1zM84 42h1v1h-1zM7 43h1v1H7zM8 43h1v1H8zM9 43h1v1H9zM10 43h1v1h-1zM11 43h1v1h-1zM12 43h1v1h-1zM13 43h1v1h-1zM14 43h1v1h-1zM15 43h1v1h-1zM16 43h1v1h-1zM31 43h1v1h-1zM32 43h1v1h-1zM33 43h1v1h-1zM34 43h1v1h-1zM35 43h1v1h-1zM36 43h1v1h-1zM37 43h1v1h-1zM38 43h1v1h-1zM39 43h1v1h-1zM40 43h1v1h-1zM41 43h1v1h-1zM42 43h1v1h-1zM43 43h1v1h-1zM44 43h1v1h-1zM51 43h1v1h-1zM52 43h1v1h-1zM53 43h1v1h-1zM54 43h1v1h-1zM55 43h1v1h-1zM56 43h1v1h-1zM57 43h1v1h-1zM58 43h1v1h-1zM65 43h1v1h-1zM66 43h1v1h-1zM67 43h1v1h-1zM68 43h1v1h-1zM69 43h1v1h-1zM70 43h1v1h-1zM71 43h1v1h-1zM72 43h1v1h-1zM77 43h1v1h-1zM78 43h1v1h-1zM79 43h1v1h-1zM80 43h1v1h-1zM81 43h1v1h-1zM82 43h1v1h-1zM83 43h1v1h-1zM84 43h1v1h-1zM7 44h1v1H7zM8 44h1v1H8zM9 44h1v1H9zM10 44h1v1h-1zM11 44h1v1h-1zM12 44h1v1h-1zM13 44h1v1h-1zM14 44h1v1h-1zM15 44h1v1h-1zM16 44h1v1h-1zM17 44h1v1h-1zM18 44h1v1h-1zM31 44h1v1h-1zM32 44h1v1h-1zM33 44h1v1h-1zM34 44h1v1h-1zM35 44h1v1h-1zM36 44h1v1h-1zM37 44h1v1h-1zM38 44h1v1h-1zM39 44h1v1h-1zM40 44h1v1h-1zM41 44h1v1h-1zM42 44h1v1h-1zM43 44h1v1h-1zM44 44h1v1h-1zM51 44h1v1h-1zM52 44h1v1h-1zM53 44h1v1h-1zM54 44h1v1h-1zM55 44h1v1h-1zM56 44h1v1h-1zM57 44h1v1h-1zM58 44h1v1h-1zM65 44h1v1h-1zM66 44h1v1h-1zM67 44h1v1h-1zM68 44h1v1h-1zM69 44h1v1h-1zM70 44h1v1h-1zM71 44h1v1h-1zM72 44h1v1h-1zM73 44h1v1h-1zM74 44h1v1h-1zM79 44h1v1h-1zM80 44h1v1h-1zM81 44h1v1h-1zM82 44h1v1h-1zM83 44h1v1h-1zM84 44h1v1h-1zM85 44h1v1h-1zM86 44h1v1h-1zM87 44h1v1h-1zM88 44h1v1h-1zM7 45h1v1H7zM8 45h1v1H8zM9 45h1v1H9zM10 45h1v1h-1zM11 45h1v1h-1zM12 45h1v1h-1zM13 45h1v1h-1zM14 45h1v1h-1zM15 45h1v1h-1zM16 45h1v1h-1zM17 45h1v1h-1zM18 45h1v1h-1zM31 45h1v1h-1zM32 45h1v1h-1zM33 45h1v1h-1zM34 45h1v1h-1zM35 45h1v1h-1zM36 45h1v1h-1zM37 45h1v1h-1zM38 45h1v1h-1zM39 45h1v1h-1zM40 45h1v1h-1zM41 45h1v1h-1zM42 45h1v1h-1zM43 45h1v1h-1zM44 45h1v1h-1zM51 45h1v1h-1zM52 45h1v1h-1zM53 45h1v1h-1zM54 45h1v1h-1zM55 45h1v1h-1zM56 45h1v1h-1zM57 45h1v1h-1zM58 45h1v1h-1zM65 45h1v1h-1zM66 45h1v1h-1zM67 45h1v1h-1zM68 45h1v1h-1zM69 45h1v1h-1zM70 45h1v1h-1zM71 45h1v1h-1zM72 45h1v1h-1zM73 45h1v1h-1zM74 45h1v1h-1zM79 45h1v1h-1zM80 45h1v1h-1zM81 45h1v1h-1zM82 45h1v1h-1zM83 45h1v1h-1zM84 45h1v1h-1zM85 45h1v1h-1zM86 45h1v1h-1zM87 45h1v1h-1zM88 45h1v1h-1zM7 46h1v1H7zM8 46h1v1H8zM9 46h1v1H9zM10 46h1v1h-1zM11 46h1v1h-1zM12 46h1v1h-1zM13 46h1v1h-1zM14 46h1v1h-1zM15 46h1v1h-1zM16 46h1v1h-1zM17 46h1v1h-1zM18 46h1v1h-1zM19 46h1v1h-1zM20 46h1v1h-1zM21 46h1v1h-1zM22 46h1v1h-1zM29 46h1v1h-1zM30 46h1v1h-1zM31 46h1v1h-1zM32 46h1v1h-1zM33 46h1v1h-1zM34 46h1v1h-1zM35 46h1v1h-1zM36 46h1v1h-1zM37 46h1v1h-1zM38 46h1v1h-1zM39 46h1v1h-1zM40 46h1v1h-1zM41 46h1v1h-1zM42 46h1v1h-1zM43 46h1v1h-1zM44 46h1v1h-1zM51 46h1v1h-1zM52 46h1v1h-1zM53 46h1v1h-1zM54 46h1v1h-1zM55 46h1v1h-1zM56 46h1v1h-1zM57 46h1v1h-1zM58 46h1v1h-1zM65 46h1v1h-1zM66 46h1v1h-1zM67 46h1v1h-1zM68 46h1v1h-1zM69 46h1v1h-1zM70 46h1v1h-1zM71 46h1v1h-1zM72 46h1v1h-1zM73 46h1v1h-1zM74 46h1v1h-1zM79 46h1v1h-1zM80 46h1v1h-1zM85 46h1v1h-1zM86 46h1v1h-1zM87 46h1v1h-1zM88 46h1v1h-1zM89 46h1v1h-1zM90 46h1v1h-1zM91 46h1v1h-1zM92 46h1v1h-1zM7 47h1v1H7zM8 47h1v1H8zM9 47h1v1H9zM10 47h1v1h-1zM11 47h1v1h-1zM12 47h1v1h-1zM13 47h1v1h-1zM14 47h1v1h-1zM15 47h1v1h-1zM16 47h1v1h-1zM17 47h1v1h-1zM18 47h1v1h-1zM19 47h1v1h-1zM20 47h1v1h-1zM21 47h1v1h-1zM22 47h1v1h-1zM29 47h1v1h-1zM30 47h1v1h-1zM31 47h1v1h-1zM32 47h1v1h-1zM33 47h1v1h-1zM34 47h1v1h-1zM35 47h1v1h-1zM36 47h1v1h-1zM37 47h1v1h-1zM38 47h1v1h-1zM39 47h1v1h-1zM40 47h1v1h-1zM41 47h1v1h-1zM42 47h1v1h-1zM43 47h1v1h-1zM44 47h1v1h-1zM51 47h1v1h-1zM52 47h1v1h-1zM53 47h1v1h-1zM54 47h1v1h-1zM55 47h1v1h-1zM56 47h1v1h-1zM57 47h1v1h-1zM58 47h1v1h-1zM65 47h1v1h-1zM66 47h1v1h-1zM67 47h1v1h-1zM68 47h1v1h-1zM69 47h1v1h-1zM70 47h1v1h-1zM71 47h1v1h-1zM72 47h1v1h-1zM73 47h1v1h-1zM74 47h1v1h-1zM79 47h1v1h-1zM80 47h1v1h-1zM85 47h1v1h-1zM86 47h1v1h-1zM87 47h1v1h-1zM88 47h1v1h-1zM89 47h1v1h-1zM90 47h1v1h-1zM91 47h1v1h-1zM92 47h1v1h-1zM9 48h1v1H9zM10 48h1v1h-1zM11 48h1v1h-1zM12 48h1v1h-1zM13 48h1v1h-1zM14 48h1v1h-1zM15 48h1v1h-1zM16 48h1v1h-1zM17 48h1v1h-1zM18 48h1v1h-1zM19 48h1v1h-1zM20 48h1v1h-1zM21 48h1v1h-1zM22 48h1v1h-1zM23 48h1v1h-1zM24 48h1v1h-1zM25 48h1v1h-1zM26 48h1v1h-1zM27 48h1v1h-1zM28 48h1v1h-1zM29 48h1v1h-1zM30 48h1v1h-1zM31 48h1v1h-1zM32 48h1v1h-1zM33 48h1v1h-1zM34 48h1v1h-1zM35 48h1v1h-1zM36 48h1v1h-1zM37 48h1v1h-1zM38 48h1v1h-1zM39 48h1v1h-1zM40 48h1v1h-1zM41 48h1v1h-1zM42 48h1v1h-1zM43 48h1v1h-1zM44 48h1v1h-1zM51 48h1v1h-1zM52 48h1v1h-1zM53 48h1v1h-1zM54 48h1v1h-1zM55 48h1v1h-1zM56 48h1v1h-1zM57 48h1v1h-1zM58 48h1v1h-1zM65 48h1v1h-1zM66 48h1v1h-1zM67 48h1v1h-1zM68 48h1v1h-1zM69 48h1v1h-1zM70 48h1v1h-1zM71 48h1v1h-1zM72 48h1v1h-1zM73 48h1v1h-1zM74 48h1v1h-1zM79 48h1v1h-1zM80 48h1v1h-1zM85 48h1v1h-1zM86 48h1v1h-1zM87 48h1v1h-1zM88 48h1v1h-1zM89 48h1v1h-1zM90 48h1v1h-1zM91 48h1v1h-1zM92 48h1v1h-1zM93 48h1v1h-1zM94 48h1v1h-1zM9 49h1v1H9zM10 49h1v1h-1zM11 49h1v1h-1zM12 49h1v1h-1zM13 49h1v1h-1zM14 49h1v1h-1zM15 49h1v1h-1zM16 49h1v1h-1zM17 49h1v1h-1zM18 49h1v1h-1zM19 49h1v1h-1zM20 49h1v1h-1zM21 49h1v1h-1zM22 49h1v1h-1zM23 49h1v1h-1zM24 49h1v1h-1zM25 49h1v1h-1zM26 49h1v1h-1zM27 49h1v1h-1zM28 49h1v1h-1zM29 49h1v1h-1zM30 49h1v1h-1zM31 49h1v1h-1zM32 49h1v1h-1zM33 49h1v1h-1zM34 49h1v1h-1zM35 49h1v1h-1zM36 49h1v1h-1zM37 49h1v1h-1zM38 49h1v1h-1zM39 49h1v1h-1zM40 49h1v1h-1zM41 49h1v1h-1zM42 49h1v1h-1zM43 49h1v1h-1zM44 49h1v1h-1zM51 49h1v1h-1zM52 49h1v1h-1zM53 49h1v1h-1zM54 49h1v1h-1zM55 49h1v1h-1zM56 49h1v1h-1zM57 49h1v1h-1zM58 49h1v1h-1zM65 49h1v1h-1zM66 49h1v1h-1zM67 49h1v1h-1zM68 49h1v1h-1zM69 49h1v1h-1zM70 49h1v1h-1zM71 49h1v1h-1zM72 49h1v1h-1zM73 49h1v1h-1zM74 49h1v1h-1zM79 49h1v1h-1zM80 49h1v1h-1zM85 49h1v1h-1zM86 49h1v1h-1zM87 49h1v1h-1zM88 49h1v1h-1zM89 49h1v1h-1zM90 49h1v1h-1zM91 49h1v1h-1zM92 49h1v1h-1zM93 49h1v1h-1zM94 49h1v1h-1zM9 50h1v1H9zM10 50h1v1h-1zM11 50h1v1h-1zM12 50h1v1h-1zM13 50h1v1h-1zM14 50h1v1h-1zM15 50h1v1h-1zM16 50h1v1h-1zM17 50h1v1h-1zM18 50h1v1h-1zM19 50h1v1h-1zM20 50h1v1h-1zM21 50h1v1h-1zM22 50h1v1h-1zM29 50h1v1h-1zM30 50h1v1h-1zM31 50h1v1h-1zM32 50h1v1h-1zM33 50h1v1h-1zM34 50h1v1h-1zM35 50h1v1h-1zM36 50h1v1h-1zM37 50h1v1h-1zM38 50h1v1h-1zM39 50h1v1h-1zM40 50h1v1h-1zM41 50h1v1h-1zM42 50h1v1h-1zM43 50h1v1h-1zM44 50h1v1h-1zM51 50h1v1h-1zM52 50h1v1h-1zM53 50h1v1h-1zM54 50h1v1h-1zM55 50h1v1h-1zM56 50h1v1h-1zM57 50h1v1h-1zM58 50h1v1h-1zM65 50h1v1h-1zM66 50h1v1h-1zM67 50h1v1h-1zM68 50h1v1h-1zM69 50h1v1h-1zM70 50h1v1h-1zM71 50h1v1h-1zM72 50h1v1h-1zM73 50h1v1h-1zM74 50h1v1h-1zM79 50h1v1h-1zM80 50h1v1h-1zM81 50h1v1h-1zM82 50h1v1h-1zM83 50h1v1h-1zM84 50h1v1h-1zM85 50h1v1h-1zM86 50h1v1h-1zM87 50h1v1h-1zM88 50h1v1h-1zM89 50h1v1h-1zM90 50h1v1h-1zM91 50h1v1h-1zM92 50h1v1h-1zM93 50h1v1h-1zM94 50h1v1h-1zM9 51h1v1H9zM10 51h1v1h-1zM11 51h1v1h-1zM12 51h1v1h-1zM13 51h1v1h-1zM14 51h1v1h-1zM15 51h1v1h-1zM16 51h1v1h-1zM17 51h1v1h-1zM18 51h1v1h-1zM19 51h1v1h-1zM20 51h1v1h-1zM21 51h1v1h-1zM22 51h1v1h-1zM29 51h1v1h-1zM30 51h1v1h-1zM31 51h1v1h-1zM32 51h1v1h-1zM33 51h1v1h-1zM34 51h1v1h-1zM35 51h1v1h-1zM36 51h1v1h-1zM37 51h1v1h-1zM38 51h1v1h-1zM39 51h1v1h-1zM40 51h1v1h-1zM41 51h1v1h-1zM42 51h1v1h-1zM43 51h1v1h-1zM44 51h1v1h-1zM51 51h1v1h-1zM52 51h1v1h-1zM53 51h1v1h-1zM54 51h1v1h-1zM55 51h1v1h-1zM56 51h1v1h-1zM57 51h1v1h-1zM58 51h1v1h-1zM65 51h1v1h-1zM66 51h1v1h-1zM67 51h1v1h-1zM68 51h1v1h-1zM69 51h1v1h-1zM70 51h1v1h-1zM71 51h1v1h-1zM72 51h1v1h-1zM73 51h1v1h-1zM74 51h1v1h-1zM79 51h1v1h-1zM80 51h1v1h-1zM81 51h1v1h-1zM82 51h1v1h-1zM83 51h1v1h-1zM84 51h1v1h-1zM85 51h1v1h-1zM86 51h1v1h-1zM87 51h1v1h-1zM88 51h1v1h-1zM89 51h1v1h-1zM90 51h1v1h-1zM91 51h1v1h-1zM92 51h1v1h-1zM93 51h1v1h-1zM94 51h1v1h-1zM9 52h1v1H9zM10 52h1v1h-1zM11 52h1v1h-1zM12 52h1v1h-1zM13 52h1v1h-1zM14 52h1v1h-1zM15 52h1v1h-1zM16 52h1v1h-1zM17 52h1v1h-1zM18 52h1v1h-1zM19 52h1v1h-1zM20 52h1v1h-1zM21 52h1v1h-1zM22 52h1v1h-1zM29 52h1v1h-1zM30 52h1v1h-1zM31 52h1v1h-1zM32 52h1v1h-1zM33 52h1v1h-1zM34 52h1v1h-1zM35 52h1v1h-1zM36 52h1v1h-1zM37 52h1v1h-1zM38 52h1v1h-1zM39 52h1v1h-1zM40 52h1v1h-1zM41 52h1v1h-1zM42 52h1v1h-1zM43 52h1v1h-1zM44 52h1v1h-1zM51 52h1v1h-1zM52 52h1v1h-1zM53 52h1v1h-1zM54 52h1v1h-1zM55 52h1v1h-1zM56 52h1v1h-1zM57 52h1v1h-1zM58 52h1v1h-1zM65 52h1v1h-1zM66 52h1v1h-1zM67 52h1v1h-1zM68 52h1v1h-1zM69 52h1v1h-1zM70 52h1v1h-1zM71 52h1v1h-1zM72 52h1v1h-1zM73 52h1v1h-1zM74 52h1v1h-1zM79 52h1v1h-1zM80 52h1v1h-1zM81 52h1v1h-1zM82 52h1v1h-1zM83 52h1v1h-1zM84 52h1v1h-1zM85 52h1v1h-1zM86 52h1v1h-1zM87 52h1v1h-1zM88 52h1v1h-1zM89 52h1v1h-1zM90 52h1v1h-1zM91 52h1v1h-1zM92 52h1v1h-1zM9 53h1v1H9zM10 53h1v1h-1zM11 53h1v1h-1zM12 53h1v1h-1zM13 53h1v1h-1zM14 53h1v1h-1zM15 53h1v1h-1zM16 53h1v1h-1zM17 53h1v1h-1zM18 53h1v1h-1zM19 53h1v1h-1zM20 53h1v1h-1zM21 53h1v1h-1zM22 53h1v1h-1zM29 53h1v1h-1zM30 53h1v1h-1zM31 53h1v1h-1zM32 53h1v1h-1zM33 53h1v1h-1zM34 53h1v1h-1zM35 53h1v1h-1zM36 53h1v1h-1zM37 53h1v1h-1zM38 53h1v1h-1zM39 53h1v1h-1zM40 53h1v1h-1zM41 53h1v1h-1zM42 53h1v1h-1zM43 53h1v1h-1zM44 53h1v1h-1zM51 53h1v1h-1zM52 53h1v1h-1zM53 53h1v1h-1zM54 53h1v1h-1zM55 53h1v1h-1zM56 53h1v1h-1zM57 53h1v1h-1zM58 53h1v1h-1zM65 53h1v1h-1zM66 53h1v1h-1zM67 53h1v1h-1zM68 53h1v1h-1zM69 53h1v1h-1zM70 53h1v1h-1zM71 53h1v1h-1zM72 53h1v1h-1zM73 53h1v1h-1zM74 53h1v1h-1zM79 53h1v1h-1zM80 53h1v1h-1zM81 53h1v1h-1zM82 53h1v1h-1zM83 53h1v1h-1zM84 53h1v1h-1zM85 53h1v1h-1zM86 53h1v1h-1zM87 53h1v1h-1zM88 53h1v1h-1zM89 53h1v1h-1zM90 53h1v1h-1zM91 53h1v1h-1zM92 53h1v1h-1zM9 54h1v1H9zM10 54h1v1h-1zM11 54h1v1h-1zM12 54h1v1h-1zM13 54h1v1h-1zM14 54h1v1h-1zM15 54h1v1h-1zM16 54h1v1h-1zM17 54h1v1h-1zM18 54h1v1h-1zM19 54h1v1h-1zM20 54h1v1h-1zM21 54h1v1h-1zM22 54h1v1h-1zM29 54h1v1h-1zM30 54h1v1h-1zM31 54h1v1h-1zM32 54h1v1h-1zM33 54h1v1h-1zM34 54h1v1h-1zM35 54h1v1h-1zM36 54h1v1h-1zM37 54h1v1h-1zM38 54h1v1h-1zM39 54h1v1h-1zM40 54h1v1h-1zM41 54h1v1h-1zM42 54h1v1h-1zM43 54h1v1h-1zM44 54h1v1h-1zM51 54h1v1h-1zM52 54h1v1h-1zM53 54h1v1h-1zM54 54h1v1h-1zM55 54h1v1h-1zM56 54h1v1h-1zM57 54h1v1h-1zM58 54h1v1h-1zM65 54h1v1h-1zM66 54h1v1h-1zM67 54h1v1h-1zM68 54h1v1h-1zM69 54h1v1h-1zM70 54h1v1h-1zM71 54h1v1h-1zM72 54h1v1h-1zM73 54h1v1h-1zM74 54h1v1h-1zM79 54h1v1h-1zM80 54h1v1h-1zM81 54h1v1h-1zM82 54h1v1h-1zM83 54h1v1h-1zM84 54h1v1h-1zM85 54h1v1h-1zM86 54h1v1h-1zM87 54h1v1h-1zM88 54h1v1h-1zM9 55h1v1H9zM10 55h1v1h-1zM11 55h1v1h-1zM12 55h1v1h-1zM13 55h1v1h-1zM14 55h1v1h-1zM15 55h1v1h-1zM16 55h1v1h-1zM17 55h1v1h-1zM18 55h1v1h-1zM19 55h1v1h-1zM20 55h1v1h-1zM21 55h1v1h-1zM22 55h1v1h-1zM29 55h1v1h-1zM30 55h1v1h-1zM31 55h1v1h-1zM32 55h1v1h-1zM33 55h1v1h-1zM34 55h1v1h-1zM35 55h1v1h-1zM36 55h1v1h-1zM37 55h1v1h-1zM38 55h1v1h-1zM39 55h1v1h-1zM40 55h1v1h-1zM41 55h1v1h-1zM42 55h1v1h-1zM43 55h1v1h-1zM44 55h1v1h-1zM51 55h1v1h-1zM52 55h1v1h-1zM53 55h1v1h-1zM54 55h1v1h-1zM55 55h1v1h-1zM56 55h1v1h-1zM57 55h1v1h-1zM58 55h1v1h-1zM65 55h1v1h-1zM66 55h1v1h-1zM67 55h1v1h-1zM68 55h1v1h-1zM69 55h1v1h-1zM70 55h1v1h-1zM71 55h1v1h-1zM72 55h1v1h-1zM73 55h1v1h-1zM74 55h1v1h-1zM79 55h1v1h-1zM80 55h1v1h-1zM81 55h1v1h-1zM82 55h1v1h-1zM83 55h1v1h-1zM84 55h1v1h-1zM85 55h1v1h-1zM86 55h1v1h-1zM87 55h1v1h-1zM88 55h1v1h-1zM9 56h1v1H9zM10 56h1v1h-1zM11 56h1v1h-1zM12 56h1v1h-1zM13 56h1v1h-1zM14 56h1v1h-1zM15 56h1v1h-1zM16 56h1v1h-1zM17 56h1v1h-1zM18 56h1v1h-1zM19 56h1v1h-1zM20 56h1v1h-1zM21 56h1v1h-1zM22 56h1v1h-1zM29 56h1v1h-1zM30 56h1v1h-1zM31 56h1v1h-1zM32 56h1v1h-1zM33 56h1v1h-1zM34 56h1v1h-1zM35 56h1v1h-1zM36 56h1v1h-1zM37 56h1v1h-1zM38 56h1v1h-1zM39 56h1v1h-1zM40 56h1v1h-1zM41 56h1v1h-1zM42 56h1v1h-1zM43 56h1v1h-1zM44 56h1v1h-1zM51 56h1v1h-1zM52 56h1v1h-1zM53 56h1v1h-1zM54 56h1v1h-1zM55 56h1v1h-1zM56 56h1v1h-1zM57 56h1v1h-1zM58 56h1v1h-1zM65 56h1v1h-1zM66 56h1v1h-1zM67 56h1v1h-1zM68 56h1v1h-1zM69 56h1v1h-1zM70 56h1v1h-1zM71 56h1v1h-1zM72 56h1v1h-1zM77 56h1v1h-1zM78 56h1v1h-1zM79 56h1v1h-1zM80 56h1v1h-1zM81 56h1v1h-1zM82 56h1v1h-1zM83 56h1v1h-1zM84 56h1v1h-1zM85 56h1v1h-1zM86 56h1v1h-1zM9 57h1v1H9zM10 57h1v1h-1zM11 57h1v1h-1zM12 57h1v1h-1zM13 57h1v1h-1zM14 57h1v1h-1zM15 57h1v1h-1zM16 57h1v1h-1zM17 57h1v1h-1zM18 57h1v1h-1zM19 57h1v1h-1zM20 57h1v1h-1zM21 57h1v1h-1zM22 57h1v1h-1zM29 57h1v1h-1zM30 57h1v1h-1zM31 57h1v1h-1zM32 57h1v1h-1zM33 57h1v1h-1zM34 57h1v1h-1zM35 57h1v1h-1zM36 57h1v1h-1zM37 57h1v1h-1zM38 57h1v1h-1zM39 57h1v1h-1zM40 57h1v1h-1zM41 57h1v1h-1zM42 57h1v1h-1zM43 57h1v1h-1zM44 57h1v1h-1zM51 57h1v1h-1zM52 57h1v1h-1zM53 57h1v1h-1zM54 57h1v1h-1zM55 57h1v1h-1zM56 57h1v1h-1zM57 57h1v1h-1zM58 57h1v1h-1zM65 57h1v1h-1zM66 57h1v1h-1zM67 57h1v1h-1zM68 57h1v1h-1zM69 57h1v1h-1zM70 57h1v1h-1zM71 57h1v1h-1zM72 57h1v1h-1zM77 57h1v1h-1zM78 57h1v1h-1zM79 57h1v1h-1zM80 57h1v1h-1zM81 57h1v1h-1zM82 57h1v1h-1zM83 57h1v1h-1zM84 57h1v1h-1zM85 57h1v1h-1zM86 57h1v1h-1zM9 58h1v1H9zM10 58h1v1h-1zM11 58h1v1h-1zM12 58h1v1h-1zM13 58h1v1h-1zM14 58h1v1h-1zM15 58h1v1h-1zM16 58h1v1h-1zM17 58h1v1h-1zM18 58h1v1h-1zM19 58h1v1h-1zM20 58h1v1h-1zM21 58h1v1h-1zM22 58h1v1h-1zM23 58h1v1h-1zM24 58h1v1h-1zM25 58h1v1h-1zM26 58h1v1h-1zM27 58h1v1h-1zM28 58h1v1h-1zM29 58h1v1h-1zM30 58h1v1h-1zM31 58h1v1h-1zM32 58h1v1h-1zM33 58h1v1h-1zM34 58h1v1h-1zM35 58h1v1h-1zM36 58h1v1h-1zM37 58h1v1h-1zM38 58h1v1h-1zM39 58h1v1h-1zM40 58h1v1h-1zM41 58h1v1h-1zM42 58h1v1h-1zM43 58h1v1h-1zM44 58h1v1h-1zM51 58h1v1h-1zM52 58h1v1h-1zM53 58h1v1h-1zM54 58h1v1h-1zM55 58h1v1h-1zM56 58h1v1h-1zM57 58h1v1h-1zM58 58h1v1h-1zM65 58h1v1h-1zM66 58h1v1h-1zM67 58h1v1h-1zM68 58h1v1h-1zM69 58h1v1h-1zM70 58h1v1h-1zM71 58h1v1h-1zM72 58h1v1h-1zM77 58h1v1h-1zM78 58h1v1h-1zM79 58h1v1h-1zM80 58h1v1h-1zM81 58h1v1h-1zM82 58h1v1h-1zM83 58h1v1h-1zM84 58h1v1h-1zM9 59h1v1H9zM10 59h1v1h-1zM11 59h1v1h-1zM12 59h1v1h-1zM13 59h1v1h-1zM14 59h1v1h-1zM15 59h1v1h-1zM16 59h1v1h-1zM17 59h1v1h-1zM18 59h1v1h-1zM19 59h1v1h-1zM20 59h1v1h-1zM21 59h1v1h-1zM22 59h1v1h-1zM23 59h1v1h-1zM24 59h1v1h-1zM25 59h1v1h-1zM26 59h1v1h-1zM27 59h1v1h-1zM28 59h1v1h-1zM29 59h1v1h-1zM30 59h1v1h-1zM31 59h1v1h-1zM32 59h1v1h-1zM33 59h1v1h-1zM34 59h1v1h-1zM35 59h1v1h-1zM36 59h1v1h-1zM37 59h1v1h-1zM38 59h1v1h-1zM39 59h1v1h-1zM40 59h1v1h-1zM41 59h1v1h-1zM42 59h1v1h-1zM43 59h1v1h-1zM44 59h1v1h-1zM51 59h1v1h-1zM52 59h1v1h-1zM53 59h1v1h-1zM54 59h1v1h-1zM55 59h1v1h-1zM56 59h1v1h-1zM57 59h1v1h-1zM58 59h1v1h-1zM65 59h1v1h-1zM66 59h1v1h-1zM67 59h1v1h-1zM68 59h1v1h-1zM69 59h1v1h-1zM70 59h1v1h-1zM71 59h1v1h-1zM72 59h1v1h-1zM77 59h1v1h-1zM78 59h1v1h-1zM79 59h1v1h-1zM80 59h1v1h-1zM81 59h1v1h-1zM82 59h1v1h-1zM83 59h1v1h-1zM84 59h1v1h-1zM7 60h1v1H7zM8 60h1v1H8zM9 60h1v1H9zM10 60h1v1h-1zM11 60h1v1h-1zM12 60h1v1h-1zM13 60h1v1h-1zM14 60h1v1h-1zM15 60h1v1h-1zM16 60h1v1h-1zM17 60h1v1h-1zM18 60h1v1h-1zM19 60h1v1h-1zM20 60h1v1h-1zM21 60h1v1h-1zM22 60h1v1h-1zM29 60h1v1h-1zM30 60h1v1h-1zM31 60h1v1h-1zM32 60h1v1h-1zM33 60h1v1h-1zM34 60h1v1h-1zM35 60h1v1h-1zM36 60h1v1h-1zM37 60h1v1h-1zM38 60h1v1h-1zM39 60h1v1h-1zM40 60h1v1h-1zM41 60h1v1h-1zM42 60h1v1h-1zM43 60h1v1h-1zM44 60h1v1h-1zM51 60h1v1h-1zM52 60h1v1h-1zM53 60h1v1h-1zM54 60h1v1h-1zM55 60h1v1h-1zM56 60h1v1h-1zM57 60h1v1h-1zM58 60h1v1h-1zM65 60h1v1h-1zM66 60h1v1h-1zM67 60h1v1h-1zM68 60h1v1h-1zM69 60h1v1h-1zM70 60h1v1h-1zM71 60h1v1h-1zM72 60h1v1h-1zM77 60h1v1h-1zM78 60h1v1h-1zM79 60h1v1h-1zM80 60h1v1h-1zM81 60h1v1h-1zM82 60h1v1h-1zM7 61h1v1H7zM8 61h1v1H8zM9 61h1v1H9zM10 61h1v1h-1zM11 61h1v1h-1zM12 61h1v1h-1zM13 61h1v1h-1zM14 61h1v1h-1zM15 61h1v1h-1zM16 61h1v1h-1zM17 61h1v1h-1zM18 61h1v1h-1zM19 61h1v1h-1zM20 61h1v1h-1zM21 61h1v1h-1zM22 61h1v1h-1zM29 61h1v1h-1zM30 61h1v1h-1zM31 61h1v1h-1zM32 61h1v1h-1zM33 61h1v1h-1zM34 61h1v1h-1zM35 61h1v1h-1zM36 61h1v1h-1zM37 61h1v1h-1zM38 61h1v1h-1zM39 61h1v1h-1zM40 61h1v1h-1zM41 61h1v1h-1zM42 61h1v1h-1zM43 61h1v1h-1zM44 61h1v1h-1zM51 61h1v1h-1zM52 61h1v1h-1zM53 61h1v1h-1zM54 61h1v1h-1zM55 61h1v1h-1zM56 61h1v1h-1zM57 61h1v1h-1zM58 61h1v1h-1zM65 61h1v1h-1zM66 61h1v1h-1zM67 61h1v1h-1zM68 61h1v1h-1zM69 61h1v1h-1zM70 61h1v1h-1zM71 61h1v1h-1zM72 61h1v1h-1zM77 61h1v1h-1zM78 61h1v1h-1zM79 61h1v1h-1zM80 61h1v1h-1zM81 61h1v1h-1zM82 61h1v1h-1zM7 62h1v1H7zM8 62h1v1H8zM9 62h1v1H9zM10 62h1v1h-1zM11 62h1v1h-1zM12 62h1v1h-1zM13 62h1v1h-1zM14 62h1v1h-1zM15 62h1v1h-1zM16 62h1v1h-1zM17 62h1v1h-1zM18 62h1v1h-1zM31 62h1v1h-1zM32 62h1v1h-1zM33 62h1v1h-1zM34 62h1v1h-1zM35 62h1v1h-1zM36 62h1v1h-1zM37 62h1v1h-1zM38 62h1v1h-1zM39 62h1v1h-1zM40 62h1v1h-1zM41 62h1v1h-1zM42 62h1v1h-1zM43 62h1v1h-1zM44 62h1v1h-1zM51 62h1v1h-1zM52 62h1v1h-1zM53 62h1v1h-1zM54 62h1v1h-1zM55 62h1v1h-1zM56 62h1v1h-1zM57 62h1v1h-1zM58 62h1v1h-1zM65 62h1v1h-1zM66 62h1v1h-1zM67 62h1v1h-1zM68 62h1v1h-1zM69 62h1v1h-1zM70 62h1v1h-1zM71 62h1v1h-1zM72 62h1v1h-1zM77 62h1v1h-1zM78 62h1v1h-1zM79 62h1v1h-1zM80 62h1v1h-1zM7 63h1v1H7zM8 63h1v1H8zM9 63h1v1H9zM10 63h1v1h-1zM11 63h1v1h-1zM12 63h1v1h-1zM13 63h1v1h-1zM14 63h1v1h-1zM15 63h1v1h-1zM16 63h1v1h-1zM17 63h1v1h-1zM18 63h1v1h-1zM31 63h1v1h-1zM32 63h1v1h-1zM33 63h1v1h-1zM34 63h1v1h-1zM35 63h1v1h-1zM36 63h1v1h-1zM37 63h1v1h-1zM38 63h1v1h-1zM39 63h1v1h-1zM40 63h1v1h-1zM41 63h1v1h-1zM42 63h1v1h-1zM43 63h1v1h-1zM44 63h1v1h-1zM51 63h1v1h-1zM52 63h1v1h-1zM53 63h1v1h-1zM54 63h1v1h-1zM55 63h1v1h-1zM56 63h1v1h-1zM57 63h1v1h-1zM58 63h1v1h-1zM65 63h1v1h-1zM66 63h1v1h-1zM67 63h1v1h-1zM68 63h1v1h-1zM69 63h1v1h-1zM70 63h1v1h-1zM71 63h1v1h-1zM72 63h1v1h-1zM77 63h1v1h-1zM78 63h1v1h-1zM79 63h1v1h-1zM80 63h1v1h-1zM7 64h1v1H7zM8 64h1v1H8zM9 64h1v1H9zM10 64h1v1h-1zM11 64h1v1h-1zM12 64h1v1h-1zM13 64h1v1h-1zM14 64h1v1h-1zM15 64h1v1h-1zM16 64h1v1h-1zM33 64h1v1h-1zM34 64h1v1h-1zM35 64h1v1h-1zM36 64h1v1h-1zM37 64h1v1h-1zM38 64h1v1h-1zM39 64h1v1h-1zM40 64h1v1h-1zM41 64h1v1h-1zM42 64h1v1h-1zM43 64h1v1h-1zM44 64h1v1h-1zM51 64h1v1h-1zM52 64h1v1h-1zM53 64h1v1h-1zM54 64h1v1h-1zM55 64h1v1h-1zM56 64h1v1h-1zM57 64h1v1h-1zM58 64h1v1h-1zM65 64h1v1h-1zM66 64h1v1h-1zM67 64h1v1h-1zM68 64h1v1h-1zM69 64h1v1h-1zM70 64h1v1h-1zM71 64h1v1h-1zM72 64h1v1h-1zM77 64h1v1h-1zM78 64h1v1h-1zM7 65h1v1H7zM8 65h1v1H8zM9 65h1v1H9zM10 65h1v1h-1zM11 65h1v1h-1zM12 65h1v1h-1zM13 65h1v1h-1zM14 65h1v1h-1zM15 65h1v1h-1zM16 65h1v1h-1zM33 65h1v1h-1zM34 65h1v1h-1zM35 65h1v1h-1zM36 65h1v1h-1zM37 65h1v1h-1zM38 65h1v1h-1zM39 65h1v1h-1zM40 65h1v1h-1zM41 65h1v1h-1zM42 65h1v1h-1zM43 65h1v1h-1zM44 65h1v1h-1zM51 65h1v1h-1zM52 65h1v1h-1zM53 65h1v1h-1zM54 65h1v1h-1zM55 65h1v1h-1zM56 65h1v1h-1zM57 65h1v1h-1zM58 65h1v1h-1zM65 65h1v1h-1zM66 65h1v1h-1zM67 65h1v1h-1zM68 65h1v1h-1zM69 65h1v1h-1zM70 65h1v1h-1zM71 65h1v1h-1zM72 65h1v1h-1zM77 65h1v1h-1zM78 65h1v1h-1zM5 66h1v1H5zM6 66h1v1H6zM7 66h1v1H7zM8 66h1v1H8zM9 66h1v1H9zM10 66h1v1h-1zM11 66h1v1h-1zM12 66h1v1h-1zM35 66h1v1h-1zM36 66h1v1h-1zM37 66h1v1h-1zM38 66h1v1h-1zM39 66h1v1h-1zM40 66h1v1h-1zM41 66h1v1h-1zM42 66h1v1h-1zM49 66h1v1h-1zM50 66h1v1h-1zM51 66h1v1h-1zM52 66h1v1h-1zM53 66h1v1h-1zM54 66h1v1h-1zM55 66h1v1h-1zM56 66h1v1h-1zM63 66h1v1h-1zM64 66h1v1h-1zM65 66h1v1h-1zM66 66h1v1h-1zM67 66h1v1h-1zM68 66h1v1h-1zM69 66h1v1h-1zM70 66h1v1h-1zM71 66h1v1h-1zM72 66h1v1h-1zM73 66h1v1h-1zM74 66h1v1h-1zM75 66h1v1h-1zM76 66h1v1h-1zM5 67h1v1H5zM6 67h1v1H6zM7 67h1v1H7zM8 67h1v1H8zM9 67h1v1H9zM10 67h1v1h-1zM11 67h1v1h-1zM12 67h1v1h-1zM35 67h1v1h-1zM36 67h1v1h-1zM37 67h1v1h-1zM38 67h1v1h-1zM39 67h1v1h-1zM40 67h1v1h-1zM41 67h1v1h-1zM42 67h1v1h-1zM49 67h1v1h-1zM50 67h1v1h-1zM51 67h1v1h-1zM52 67h1v1h-1zM53 67h1v1h-1zM54 67h1v1h-1zM55 67h1v1h-1zM56 67h1v1h-1zM63 67h1v1h-1zM64 67h1v1h-1zM65 67h1v1h-1zM66 67h1v1h-1zM67 67h1v1h-1zM68 67h1v1h-1zM69 67h1v1h-1zM70 67h1v1h-1zM71 67h1v1h-1zM72 67h1v1h-1zM73 67h1v1h-1zM74 67h1v1h-1zM75 67h1v1h-1zM76 67h1v1h-1zM37 68h1v1h-1zM38 68h1v1h-1zM39 68h1v1h-1zM40 68h1v1h-1zM41 68h1v1h-1zM42 68h1v1h-1zM49 68h1v1h-1zM50 68h1v1h-1zM51 68h1v1h-1zM52 68h1v1h-1zM53 68h1v1h-1zM54 68h1v1h-1zM55 68h1v1h-1zM56 68h1v1h-1zM63 68h1v1h-1zM64 68h1v1h-1zM65 68h1v1h-1zM66 68h1v1h-1zM67 68h1v1h-1zM68 68h1v1h-1zM69 68h1v1h-1zM70 68h1v1h-1zM71 68h1v1h-1zM72 68h1v1h-1zM37 69h1v1h-1zM38 69h1v1h-1zM39 69h1v1h-1zM40 69h1v1h-1zM41 69h1v1h-1zM42 69h1v1h-1zM49 69h1v1h-1zM50 69h1v1h-1zM51 69h1v1h-1zM52 69h1v1h-1zM53 69h1v1h-1zM54 69h1v1h-1zM55 69h1v1h-1zM56 69h1v1h-1zM63 69h1v1h-1zM64 69h1v1h-1zM65 69h1v1h-1zM66 69h1v1h-1zM67 69h1v1h-1zM68 69h1v1h-1zM69 69h1v1h-1zM70 69h1v1h-1zM71 69h1v1h-1zM72 69h1v1h-1zM39 70h1v1h-1zM40 70h1v1h-1zM41 70h1v1h-1zM42 70h1v1h-1zM49 70h1v1h-1zM50 70h1v1h-1zM51 70h1v1h-1zM52 70h1v1h-1zM53 70h1v1h-1zM54 70h1v1h-1zM55 70h1v1h-1zM56 70h1v1h-1zM63 70h1v1h-1zM64 70h1v1h-1zM65 70h1v1h-1zM66 70h1v1h-1zM67 70h1v1h-1zM68 70h1v1h-1zM69 70h1v1h-1zM70 70h1v1h-1zM39 71h1v1h-1zM40 71h1v1h-1zM41 71h1v1h-1zM42 71h1v1h-1zM49 71h1v1h-1zM50 71h1v1h-1zM51 71h1v1h-1zM52 71h1v1h-1zM53 71h1v1h-1zM54 71h1v1h-1zM55 71h1v1h-1zM56 71h1v1h-1zM63 71h1v1h-1zM64 71h1v1h-1zM65 71h1v1h-1zM66 71h1v1h-1zM67 71h1v1h-1zM68 71h1v1h-1zM69 71h1v1h-1zM70 71h1v1h-1zM41 72h1v1h-1zM42 72h1v1h-1zM49 72h1v1h-1zM50 72h1v1h-1zM51 72h1v1h-1zM52 72h1v1h-1zM53 72h1v1h-1zM54 72h1v1h-1zM55 72h1v1h-1zM56 72h1v1h-1zM61 72h1v1h-1zM62 72h1v1h-1zM63 72h1v1h-1zM64 72h1v1h-1zM65 72h1v1h-1zM66 72h1v1h-1zM67 72h1v1h-1zM68 72h1v1h-1zM41 73h1v1h-1zM42 73h1v1h-1zM49 73h1v1h-1zM50 73h1v1h-1zM51 73h1v1h-1zM52 73h1v1h-1zM53 73h1v1h-1zM54 73h1v1h-1zM55 73h1v1h-1zM56 73h1v1h-1zM61 73h1v1h-1zM62 73h1v1h-1zM63 73h1v1h-1zM64 73h1v1h-1zM65 73h1v1h-1zM66 73h1v1h-1zM67 73h1v1h-1zM68 73h1v1h-1zM41 74h1v1h-1zM42 74h1v1h-1zM47 74h1v1h-1zM48 74h1v1h-1zM49 74h1v1h-1zM50 74h1v1h-1zM51 74h1v1h-1zM52 74h1v1h-1zM53 74h1v1h-1zM54 74h1v1h-1zM55 74h1v1h-1zM56 74h1v1h-1zM57 74h1v1h-1zM58 74h1v1h-1zM59 74h1v1h-1zM60 74h1v1h-1zM61 74h1v1h-1zM62 74h1v1h-1zM63 74h1v1h-1zM64 74h1v1h-1zM65 74h1v1h-1zM66 74h1v1h-1zM41 75h1v1h-1zM42 75h1v1h-1zM47 75h1v1h-1zM48 75h1v1h-1zM49 75h1v1h-1zM50 75h1v1h-1zM51 75h1v1h-1zM52 75h1v1h-1zM53 75h1v1h-1zM54 75h1v1h-1zM55 75h1v1h-1zM56 75h1v1h-1zM57 75h1v1h-1zM58 75h1v1h-1zM59 75h1v1h-1zM60 75h1v1h-1zM61 75h1v1h-1zM62 75h1v1h-1zM63 75h1v1h-1zM64 75h1v1h-1zM65 75h1v1h-1zM66 75h1v1h-1zM41 76h1v1h-1zM42 76h1v1h-1zM45 76h1v1h-1zM46 76h1v1h-1zM47 76h1v1h-1zM48 76h1v1h-1zM49 76h1v1h-1zM50 76h1v1h-1zM51 76h1v1h-1zM52 76h1v1h-1zM53 76h1v1h-1zM54 76h1v1h-1zM55 76h1v1h-1zM56 76h1v1h-1zM61 76h1v1h-1zM62 76h1v1h-1zM63 76h1v1h-1zM64 76h1v1h-1zM41 77h1v1h-1zM42 77h1v1h-1zM45 77h1v1h-1zM46 77h1v1h-1zM47 77h1v1h-1zM48 77h1v1h-1zM49 77h1v1h-1zM50 77h1v1h-1zM51 77h1v1h-1zM52 77h1v1h-1zM53 77h1v1h-1zM54 77h1v1h-1zM55 77h1v1h-1zM56 77h1v1h-1zM61 77h1v1h-1zM62 77h1v1h-1zM63 77h1v1h-1zM64 77h1v1h-1zM39 78h1v1h-1zM40 78h1v1h-1zM43 78h1v1h-1zM44 78h1v1h-1zM45 78h1v1h-1zM46 78h1v1h-1zM47 78h1v1h-1zM48 78h1v1h-1zM49 78h1v1h-1zM50 78h1v1h-1zM51 78h1v1h-1zM52 78h1v1h-1zM53 78h1v1h-1zM54 78h1v1h-1zM59 78h1v1h-1zM60 78h1v1h-1zM61 78h1v1h-1zM62 78h1v1h-1zM39 79h1v1h-1zM40 79h1v1h-1zM43 79h1v1h-1zM44 79h1v1h-1zM45 79h1v1h-1zM46 79h1v1h-1zM47 79h1v1h-1zM48 79h1v1h-1zM49 79h1v1h-1zM50 79h1v1h-1zM51 79h1v1h-1zM52 79h1v1h-1zM53 79h1v1h-1zM54 79h1v1h-1zM59 79h1v1h-1zM60 79h1v1h-1zM61 79h1v1h-1zM62 79h1v1h-1zM39 80h1v1h-1zM40 80h1v1h-1zM41 80h1v1h-1zM42 80h1v1h-1zM43 80h1v1h-1zM44 80h1v1h-1zM45 80h1v1h-1zM46 80h1v1h-1zM47 80h1v1h-1zM48 80h1v1h-1zM49 80h1v1h-1zM50 80h1v1h-1zM51 80h1v1h-1zM52 80h1v1h-1zM57 80h1v1h-1zM58 80h1v1h-1zM59 80h1v1h-1zM60 80h1v1h-1zM39 81h1v1h-1zM40 81h1v1h-1zM41 81h1v1h-1zM42 81h1v1h-1zM43 81h1v1h-1zM44 81h1v1h-1zM45 81h1v1h-1zM46 81h1v1h-1zM47 81h1v1h-1zM48 81h1v1h-1zM49 81h1v1h-1zM50 81h1v1h-1zM51 81h1v1h-1zM52 81h1v1h-1zM57 81h1v1h-1zM58 81h1v1h-1zM59 81h1v1h-1zM60 81h1v1h-1zM37 82h1v1h-1zM38 82h1v1h-1zM39 82h1v1h-1zM40 82h1v1h-1zM41 82h1v1h-1zM42 82h1v1h-1zM43 82h1v1h-1zM44 82h1v1h-1zM45 82h1v1h-1zM46 82h1v1h-1zM47 82h1v1h-1zM48 82h1v1h-1zM55 82h1v1h-1zM56 82h1v1h-1zM57 82h1v1h-1zM58 82h1v1h-1zM37 83h1v1h-1zM38 83h1v1h-1zM39 83h1v1h-1zM40 83h1v1h-1zM41 83h1v1h-1zM42 83h1v1h-1zM43 83h1v1h-1zM44 83h1v1h-1zM45 83h1v1h-1zM46 83h1v1h-1zM47 83h1v1h-1zM48 83h1v1h-1zM55 83h1v1h-1zM56 83h1v1h-1zM57 83h1v1h-1zM58 83h1v1h-1zM35 84h1v1h-1zM36 84h1v1h-1zM37 84h1v1h-1zM38 84h1v1h-1zM39 84h1v1h-1zM40 84h1v1h-1zM41 84h1v1h-1zM42 84h1v1h-1zM43 84h1v1h-1zM44 84h1v1h-1zM51 84h1v1h-1zM52 84h1v1h-1zM53 84h1v1h-1zM54 84h1v1h-1zM55 84h1v1h-1zM56 84h1v1h-1zM35 85h1v1h-1zM36 85h1v1h-1zM37 85h1v1h-1zM38 85h1v1h-1zM39 85h1v1h-1zM40 85h1v1h-1zM41 85h1v1h-1zM42 85h1v1h-1zM43 85h1v1h-1zM44 85h1v1h-1zM51 85h1v1h-1zM52 85h1v1h-1zM53 85h1v1h-1zM54 85h1v1h-1zM55 85h1v1h-1zM56 85h1v1h-1zM33 86h1v1h-1zM34 86h1v1h-1zM35 86h1v1h-1zM36 86h1v1h-1zM37 86h1v1h-1zM38 86h1v1h-1zM39 86h1v1h-1zM40 86h1v1h-1zM47 86h1v1h-1zM48 86h1v1h-1zM49 86h1v1h-1zM50 86h1v1h-1zM51 86h1v1h-1zM52 86h1v1h-1zM33 87h1v1h-1zM34 87h1v1h-1zM35 87h1v1h-1zM36 87h1v1h-1zM37 87h1v1h-1zM38 87h1v1h-1zM39 87h1v1h-1zM40 87h1v1h-1zM47 87h1v1h-1zM48 87h1v1h-1zM49 87h1v1h-1zM50 87h1v1h-1zM51 87h1v1h-1zM52 87h1v1h-1zM31 88h1v1h-1zM32 88h1v1h-1zM33 88h1v1h-1zM34 88h1v1h-1zM35 88h1v1h-1zM36 88h1v1h-1zM45 88h1v1h-1zM46 88h1v1h-1zM47 88h1v1h-1zM48 88h1v1h-1zM31 89h1v1h-1zM32 89h1v1h-1zM33 89h1v1h-1zM34 89h1v1h-1zM35 89h1v1h-1zM36 89h1v1h-1zM45 89h1v1h-1zM46 89h1v1h-1zM47 89h1v1h-1zM48 89h1v1h-1zM29 90h1v1h-1zM30 90h1v1h-1zM31 90h1v1h-1zM32 90h1v1h-1zM41 90h1v1h-1zM42 90h1v1h-1zM43 90h1v1h-1zM44 90h1v1h-1zM45 90h1v1h-1zM46 90h1v1h-1zM29 91h1v1h-1zM30 91h1v1h-1zM31 91h1v1h-1zM32 91h1v1h-1zM41 91h1v1h-1zM42 91h1v1h-1zM43 91h1v1h-1zM44 91h1v1h-1zM45 91h1v1h-1zM46 91h1v1h-1zM35 92h1v1h-1zM36 92h1v1h-1zM37 92h1v1h-1zM38 92h1v1h-1zM39 92h1v1h-1zM40 92h1v1h-1zM41 92h1v1h-1zM42 92h1v1h-1zM35 93h1v1h-1zM36 93h1v1h-1zM37 93h1v1h-1zM38 93h1v1h-1zM39 93h1v1h-1zM40 93h1v1h-1zM41 93h1v1h-1zM42 93h1v1h-1z"/>
</svg>