<svg xmlns="http://www.w3.org/2000/svg" viewBox="-5 -10 110 120">
  <path d="m37.484 95.824-10.754.027.023-48.16v-1.425l21.04.003h8.03c1.497-.003 3.008-.046 4.505-.007-.004 2.859-.036 5.722-.004 8.582h27.59c.011-2.223.011-4.446 0-6.66l-7.207.011v-14.62l7.203.03c.011-2.16.011-4.316 0-6.472h-7.211c.008-4.496-.078-9.012 0-13.508H66.94c-2.258.004-4.524.043-6.781 0l-.028-6.758-33.477.016L26.663 0h-.484l-3.64.011c-.04 3.22-.009 6.438-.013 9.657v18.965l-.003 43v16.453c0 2.582.035 5.172 0 7.75-3.477.031-6.957-.074-10.434-.012a369.893 369.893 0 0 0 0 4.164l25.395.012zm-3.402-68.828 6.332-.008.027-6.262-6.348.016.008-6.25h6.344v6.203h6.43v-6.18c2.066-.015 4.132-.023 6.203-.007v6.226c-2.07 0-4.137.016-6.2-.008-.007 2.094-.035 4.192.016 6.286l6.203-.024-.011 6.336h-6.204c-.023 2.063-.003 4.125-.007 6.192a321.5 321.5 0 0 1-6.438-.028l.008-6.156h-6.367c0-2.11-.047-4.227.004-6.332z"/>
  <path d="m40.594 27.191-.012 6 6.164-.004.02-6z"/>
</svg>