<svg xmlns="http://www.w3.org/2000/svg" viewBox="0 0 100 100">
  <path d="M14 34h10v2h-2v2h-2v-2h-2v2h2v2h2v-2h2v2h2v2h-4v2h-2v-2h-2v-2h-4v-2h2v-2h-2v-2zM60 40v-2h-2v-2h2v-2h-4v-2H24v2h2v2h2v-2h2v2h2v-2h2v2h2v-2h2v2h2v-2h2v2h2v-2h2v2h-2v2h10v-2h-2v-2h2v2h2v2h-2v2h4v2h4v-2h-2zm-10-4h-2v-2h2v2zM10 36h4v2h-2v14h-2V36z"/>
  <path d="M24 36h2v2h-2v-2zM28 36h2v2h2v-2h2v2h2v-2h2v2h2v-2h2v2h2v2H26v-2h2v-2zM60 36h6v2h-2v2h-2v-2h-2v-2z"/>
  <path d="M66 38h2v4h-2v2h-4v-2h2v-2h2v-2zM14 42h4v2h2v2h2v10h-2v-2h-2v-2h-2v-2h-2v-8zM80 42h8v2h2v4h-2v-2h-2v-2h-2v2h-2v-2h-2v-2zM22 44h4v2h-4v-2zM76 44h4v2h-2v2h-2v2h-2v-2h-2v-2h4v-2zM26 46h12v2H26v-2z"/>
  <path d="M80 46h2v2h2v-2h2v2h2v2h-8v2h-4v-2h2v-2h2v-2zM38 48h6v2h-6v-2zM68 48h4v2h-2v2h-2v2h-2v-2h-2v-2h4v-2zM34 50h4v2h6v2h6v2h2v12h-2v2h-8v-2h-2v-2h-4v-2h-2v-6h-2v-6h2v-2z"/>
  <path d="M44 50h6v2h-6v-2zM72 50h2v2h2v2h-4v2h-4v-2h2v-2h2v-2zM12 52h2v2h-2v-2zM24 52h4v2h-2v4h-2v-6zM50 52h14v2h-2v2h-2v2h2v-2h2v-2h2v2h2v2h-4v2h-6v-6h-8v-2zM14 54h2v2h-2v-2zM28 54h2v6h-2v-6zM16 56h2v2h-2v-2zM18 58h6v2h-6v-2zM30 60h2v4h-2v-4zM54 60h4v2h-2v8h-2V60zM32 64h2v2h-2v-2zM34 66h2v2h-2v-2zM36 68h2v2h-2v-2zM38 70h4v2h-4v-2zM52 70h2v2h-2v-2zM42 72h10v2H42v-2z"/>
</svg>