<svg xmlns="http://www.w3.org/2000/svg" viewBox="-5 -10 110 110">
  <path d="M64 50h4v4h-4v4h-8v-4h-4v-4zM48 62h4v-4h-4zm-8 20v4h4v-4zm8 4h-4v4h12v-4zM32 22h-4v4h4zm8-8h-4v4h4zm8 0v-4h-8v4zm-12 4h-4v4h4zm16 0v-4h-4v4zm8-4v-4h-8v4zm4 4v-4h-4v4zm4 4v-4h-4v4zM56 86h4v-4h-4zm16-60v-4h-4v4zM20 38h20v-4h-4v-4h-4v4h-4v-8h-4v8H12v4zm20-12h-4v4h4zm20 0v4h4v-4zm-8 12h4v-4h-4v-4h-4v4h-4v4zm20-4h-4v-4h-4v4h-4v4h28v-4H76v-8h-4zm16 4v4H12v-4H8v8h16v16h4V46h44v16h4V46h16v-8zM64 62h-4v4h4v4h-8v-4h-4v4h-4v-4h-4v4h-8v-4h4v-4H28v4h4v8h4v8h4v-8h4v4h4v-4h4v4h4v-4h4v8h4v-8h4v-8h4v-4zM48 50H32v4h4v4h8v-4h4z"/>
</svg>