<svg xmlns="http://www.w3.org/2000/svg" viewBox="0 0 100 100">
  <path d="M76.963 41.425v4.9h4.899v-4.9h-2.45zM76.963 36.525h-4.901v4.9h4.901v-2.45zM72.062 48.775H23.037v36.762H37.75v-2.45h2.45v-2.45h2.45V61.026h2.45v-2.45h2.45v-2.45h4.9v2.45h2.45v2.45h2.45v19.612h2.45v2.45h2.45v2.45h14.712V48.775h-4.9zm0 12.25V70.837H62.25V58.575h2.45v-2.45H69.612v2.45h2.45v2.45zm-34.312 0V70.837h-9.813V58.575h2.45v-2.45h4.9v2.45h2.463v2.45z"/>
  <path d="M69.613 38.975h-2.451v-2.45H64.7v-2.462h-2.45v-2.451H59.8v-2.45h-2.45v-2.45H54.9v-2.45h-2.45v-2.449h-4.9v2.449H45.1v2.45h-2.45v2.45H40.2v2.45h-2.45v2.451h-2.463v2.462h-2.45v2.45h-2.45v2.45h-2.45v2.45h-2.45v2.45H74.512v-2.45h-2.45v-2.45h-2.449z"/>
  <path d="M67.162 36.525h4.9v-4.913h-4.9v2.451zM62.25 31.612H67.162v-4.9H62.25v2.45zM59.8 83.087h-2.45v-2.449h-14.7v2.449H40.2v2.45h-2.45v2.451H62.25v-2.451H59.8zM57.35 26.712h4.9v-4.899h-4.9v2.449zM52.45 21.813h4.9v-4.901h-4.9v2.45zM52.45 16.912v-4.9h-4.9v4.9H50zM47.55 21.813v-4.901h-4.9v4.901h2.45zM42.65 26.712v-4.899h-4.9v4.899h2.45zM37.75 31.612v-4.9h-4.913v4.9h2.45zM32.837 36.525v-4.913h-4.9v4.913h2.45zM27.937 36.525h-4.9v4.9h4.9v-2.45zM18.138 41.425v4.9h4.899v-4.9h-2.45z"/>
</svg>