<svg xmlns="http://www.w3.org/2000/svg" viewBox="0 0 100 100">
  <path d="M67.65 35.29H28.43V39.22h1.96v1.96H69.61v-1.96h1.96V35.29h-1.96zM61.76 43.14v1.96H59.8v1.96h1.96v1.96H59.8v-1.96h-1.96v1.96h-1.96v1.96h1.96v1.96h1.96v1.96h1.96v-3.92h1.96v-3.92h1.96v-3.92h-1.96zM61.76 19.61h-3.92v-3.92H42.15v3.92h-3.92v3.92h-3.92v3.92h-1.96v5.88H59.8v-1.96h-1.96v-3.92h-1.96v-1.96h-1.96v-3.92h-1.96v-1.96h1.96v1.96h1.96v3.92h1.96v1.96h1.96v3.92h1.96v1.96h5.89v-5.88h-1.97v-3.92h-3.92v-1.96zM57.84 58.82h1.96v1.97h-1.96z"/>
  <path d="M57.84 43.14h1.96v1.96h-1.96zM55.88 62.75h-1.96v1.96h1.96v1.96h1.96v-5.88h-1.96zM57.84 52.94h-1.96v-1.96h-1.96v1.96h-1.96v1.96h1.96v1.96h1.96v1.96h1.96v-1.96h1.96V54.9h-1.96z"/>
  <path d="M53.92 64.71h-1.96v1.96H50v1.96h1.96v1.96h1.96v1.96h1.96v-5.88h-1.96zM51.96 47.06h1.96v1.96h1.96v-1.96h1.96V45.1h-1.96v-1.96H50v1.96h1.96zM50 78.43v1.96h-1.96v3.92h3.92v-3.92h1.96v-3.92h-1.96v1.96z"/>
  <path d="M51.96 70.59H50v-1.96h-1.96v1.96h-1.96v-1.96h1.96v-1.96h-1.96v-1.96h-1.96v-1.96h-1.97v3.92h1.97v5.88h1.96v7.84h1.96v-1.96H50v-1.96h-1.96v-1.96H50v1.96h1.96v-1.96h1.96v-1.96h-1.96zM50 56.86h-1.96v1.96H50v1.97h1.96v1.96h1.96v-1.96h1.96v-1.97h-1.96v-1.96h-1.96V54.9H50z"/>
  <path d="M46.08 64.71h1.96v1.96H50v-1.96h1.96v-1.96H50v-1.96h-1.96v-1.97h-1.96v1.97h-1.96v1.96h1.96zM48.04 54.9H50v-1.96h-1.96v-1.96h-1.96v-1.96h-1.96v1.96h-1.97v1.96h1.97v1.96h1.96v1.96h1.96z"/>
  <path d="M46.08 47.06v1.96h1.96v1.96H50v1.96h1.96v-1.96h1.96v-1.96h-1.96v-1.96H50V45.1h-1.96v1.96zM46.08 58.82v-1.96h-1.96V54.9h-1.97v-1.96h-1.96v-1.96h-1.96v3.92h1.96v5.89H44.12v-1.97z"/>
  <path d="M44.12 47.06h1.96V45.1h1.96v-1.96h-5.89v1.96h1.97z"/>
  <path d="M40.19 49.02v1.96h1.96v-1.96h1.97v-1.96h-1.97V45.1h-1.96v-1.96h-1.96v1.96h-1.96v-1.96h-1.96v3.92h1.96v3.92h1.96v-1.96z"/>
</svg>