<svg xmlns="http://www.w3.org/2000/svg" viewBox="0 0 100 100">
  <path d="m81.887 38.216 1.386-1.386 1.386-1.386-1.386-1.386-1.386-1.386 1.386-1.386 1.393-1.393-1.386-1.386-1.386-1.385-1.386-1.386-1.386-1.386-1.386-1.386-1.386-1.386-1.386-1.386-1.393-1.393-1.386-1.386-1.385-1.386-1.386-1.386-1.393 1.393-1.386 1.386-1.386-1.386-1.386-1.386-1.386 1.386-1.386 1.386-1.386-1.386-1.386-1.386-1.386 1.386-1.386 1.386-1.386 1.386-1.386 1.386-1.386 1.386-1.385 1.386-1.386 1.386-1.386 1.386-1.386 1.386-1.393 1.393-1.386 1.385-1.386 1.386-1.386 1.386 1.386 1.386 1.386 1.386-1.386 1.386-1.386 1.386 1.386 1.386 1.386 1.386-1.386 1.386-1.386 1.386 1.386 1.386 1.386 1.386-1.386 1.386-1.386 1.385-1.386 1.386-1.386 1.386-1.393 1.393-1.386 1.386-1.386 1.386-1.386 1.386-1.386 1.386-1.386 1.386-1.385 1.386-1.386 1.386-1.386 1.386-1.386 1.386-1.386 1.386-1.386 1.386-1.386 1.386-1.393 1.392-1.386 1.386-1.386 1.386 1.386 1.386-1.386 1.386 1.393 1.393-1.386 1.386 1.386 1.386 1.386 1.386 1.386 1.386 1.386 1.386 1.386-1.386 1.386 1.386 1.386-1.386 1.386-1.386-1.386-1.386 1.386-1.386-1.386-1.386 1.393-1.393 1.386 1.386 1.386-1.386 1.385 1.386 1.386-1.386 1.386-1.386-1.386-1.386 1.386-1.386 1.386 1.386 1.386-1.386 1.386-1.386-1.386-1.385 1.386-1.386-1.386-1.386 1.386-1.386 1.386 1.386 1.386-1.386 1.386 1.386 1.386-1.386-1.386-1.386-1.386-1.386 1.386-1.386 1.386 1.386 1.386-1.386 1.386 1.386 1.393-1.393 1.386-1.386 1.386-1.386 1.385-1.386 1.386-1.386 1.386 1.386 1.386 1.386 1.386-1.386 1.386-1.386 1.386 1.386 1.386 1.386 1.386-1.386 1.386-1.386 1.386 1.386 1.386 1.386 1.386-1.386 1.386-1.386 1.385-1.386 1.393-1.393 1.386-1.386 1.386-1.386 1.386-1.386 1.386-1.385 1.386-1.386 1.386-1.386 1.386-1.386 1.386-1.386 1.386-1.386-1.386-1.386-1.386-1.386zM63.863 20.192l1.386 1.386 1.386 1.386 1.386-1.386 1.386-1.386 1.385 1.386 1.393 1.393 1.386 1.386 1.386 1.386 1.386 1.386 1.386 1.386 1.386 1.385-1.386 1.386-1.386 1.386 1.386 1.386 1.386 1.386-1.386 1.386-1.386 1.386-1.386 1.386-1.386 1.386-1.386-1.386-1.385-1.386-1.386-1.386-1.386-1.386-1.386-1.386-1.386-1.386-1.386-1.386-1.393-1.393-1.386-1.386-1.386-1.385-1.386-1.386 1.386-1.386 1.386-1.386 1.386-1.386 1.386-1.386zM19.499 75.657l1.386-1.386 1.393-1.393 1.386-1.386 1.386-1.385 1.386-1.386 1.386-1.386 1.386-1.386 1.385-1.386 1.386-1.386 1.386-1.386 1.386-1.386 1.386-1.386 1.386-1.386 1.386-1.386 1.393-1.393 1.386 1.386-1.393 1.393-1.386 1.386-1.386 1.386-1.386 1.386-1.386 1.386-1.386 1.386-1.386 1.386-1.386 1.386-1.385 1.386-1.386 1.386-1.386 1.385-1.386 1.386-1.386 1.386-1.393 1.393-1.386 1.386-1.386 1.386-1.386-1.386 1.386-1.386z"/>
</svg>