<svg xmlns="http://www.w3.org/2000/svg" viewBox="0 0 100 100">
  <path d="M81.37 41.175h-3.92v3.92h7.84v-3.92h-1.96zM77.45 64.705h-1.96v-1.96h-3.92v3.92h1.96v1.96h1.96v1.96h3.92v-3.92h-1.96zM75.49 17.645v1.96h-1.96v1.96h-1.96v3.92h3.92v-1.96h1.96v-1.96h1.96v-3.92h-1.96zM73.53 56.865V33.335h-3.92V29.405h-3.92v-3.92H61.76v-3.92H38.23v3.92h-3.92v3.92h-3.92V33.335h-3.92V56.865h3.92v3.92h3.92v3.92h3.92v7.84h1.97v1.96h1.96v1.96h5.88v1.96h5.88v-1.96h5.88v-3.92h1.96v-7.84H65.69v-3.92h3.92v-3.92h3.92zM59.8 27.445v1.96H63.73v1.96h1.96V35.295h3.92v1.96h-3.92v-1.96h-1.96V31.365H59.8v-1.96h-1.96v-3.92h1.96v1.96zm-7.84 47.06v-5.88h1.96v-5.88h1.96v-5.88h-1.96v1.96h-7.84v-1.96h-1.96v5.88h1.96v5.88h1.96v5.88h-1.96v-5.88h-1.96v-5.88h-1.96v-5.88H38.23v-1.97h-1.96v-1.96h1.96v-1.96h1.97v-1.96h3.92v1.96h1.96v5.89h7.84v-5.89h1.96v-1.96h3.92v1.96h1.96v1.96h1.97v1.96h-1.97v1.97h-3.92v5.88h-1.96v5.88h-1.96v5.88h-1.96z"/>
  <path d="M57.84 54.895h3.92v-1.96H59.8v-1.96h-3.92v5.89h1.96zM55.88 84.315h3.92v-1.96h-5.88v1.96zM55.88 80.385h3.92v-1.96h-5.88v1.96zM51.96 88.235h-3.92v-1.96h-5.88v1.96h1.96v1.96H55.88v-1.96h1.96v-1.96h-3.92v1.96zM50 84.315h-1.96v1.96h5.88v-1.96h-1.96zM50 80.385h-1.96v1.97h5.88v-1.97h-1.96zM48.04 9.805v7.84h3.92v-7.84H50zM46.08 84.315h1.96v-1.96h-5.88v1.96h1.96zM46.08 80.385h1.96v-1.96h-5.88v1.96h1.96zM44.12 52.935v-1.96H40.2v1.96h-1.97v1.96H42.16v1.97h1.96v-1.97zM40.2 84.315h1.96v1.96H40.2zM40.2 80.385h1.96v1.97H40.2zM40.2 76.465h1.96v1.96H40.2zM24.51 62.745v1.96h-1.96v1.96h-1.96v3.92h3.92v-1.96h1.96v-1.96h1.96v-3.92h-1.96zM22.55 23.525h1.96v1.96h3.92v-3.92h-1.96v-1.96h-1.96v-1.96h-3.92v3.92h1.96zM22.55 45.095v-3.92h-7.84v3.92h5.88z"/>
</svg>