<svg xmlns="http://www.w3.org/2000/svg" viewBox="0 0 100 100">
  <path d="M86.27 29.41h-1.96v-1.96H15.69v1.96h-1.96v1.96h-1.97V68.62h1.97v1.96h1.96v1.97h68.62v-1.97h1.96v-1.96h1.97V31.37h-1.97v-1.96zm-1.96 5.88h-3.92v1.96h-3.92v1.96h-3.92v1.96h-3.92v1.96h-3.92v1.96H60.78v1.96h-3.92v1.97h-3.92v1.96h-5.88v-1.96h-3.92v-1.97h-3.92v-1.96H35.29v-1.96h-3.92v-1.96h-3.92v-1.96h-3.92v-1.96h-3.92v-1.96h-3.92v-1.96h3.92v1.96h3.92v1.96h3.92v1.96h3.92v1.96h3.92v1.96H39.22v1.96h3.92v1.96h3.92v1.97h5.88v-1.97h3.92v-1.96h3.92v-1.96H64.71v-1.96h3.92v-1.96h3.92v-1.96h3.92v-1.96h3.92v-1.96h3.92v1.96zm0 31.37h-1.96V64.7h-1.96v-1.96h-1.96v-1.96h-1.96v-1.96h-1.96v-1.96h-1.96V54.9h-1.96v-1.96h-1.96v-1.96h-1.96v-1.96h-1.96v-1.97h1.96v1.97h1.96v1.96h1.96v1.96h1.96v1.96h1.96v1.96h1.96v1.96h1.96v1.96h1.96v1.96h1.96v1.96h1.96v1.96zM15.69 64.7h1.96v-1.96h1.96v-1.96h1.96v-1.96h1.96v-1.96h1.96V54.9h1.96v-1.96h1.96v-1.96h1.96v-1.96h1.96v-1.97h1.96v1.97h-1.96v1.96h-1.96v1.96h-1.96v1.96h-1.96v1.96h-1.96v1.96h-1.96v1.96h-1.96v1.96h-1.96v1.96h-1.96v1.96h-1.96V64.7z"/>
</svg>