<svg xmlns="http://www.w3.org/2000/svg" viewBox="-5 -10 110 110">
  <path d="M52.648 47.352h-5.297v5.297h-5.293v15.883h10.59v5.289h-10.59v5.3h5.293v5.29h5.297v-5.29h5.293v-15.89h-10.59v-5.29h10.59V52.65h-5.293zM15.59 52.648h5.29V84.41h-5.29z"/>
  <path d="M20.879 42.059h5.29v10.59h-5.29zM20.879 84.41h5.29v5.29h-5.29zM26.18 15.59h5.29v5.29h-5.29zM26.18 36.77h5.29v5.29h-5.29z"/>
  <path d="M31.469 20.879h5.29v5.29h-5.29zM31.469 31.469h5.29v5.29h-5.29zM31.469 10.289h10.59v5.29h-10.59zM42.059 5h15.879v5.29H42.059zM57.941 10.289h10.59v5.29h-10.59zM57.941 42.281V31.469h5.29v-5.29H36.768v5.29h5.29v10.812h5.292V31.469h5.297v10.812zM63.23 20.879h5.29v5.29h-5.29z"/>
  <path d="M63.23 31.469h5.29v5.29h-5.29zM68.531 15.59h5.29v5.29h-5.29zM68.531 36.77h5.29v5.29h-5.29zM26.18 89.711h47.648v5.29H26.18z"/>
  <path d="M73.82 42.059h5.29v10.59h-5.29zM73.82 84.41h5.29v5.29h-5.29zM79.121 52.648h5.29V84.41h-5.29z"/>
</svg>