<svg xmlns="http://www.w3.org/2000/svg" viewBox="0 0 100 100">
  <path d="M48.614 22.278 50 23.664l1.386 1.386 1.386 1.386 1.386 1.386 1.386 1.386 1.386 1.385 1.386 1.386 1.393 1.393 1.386 1.386 1.385 1.386 1.386 1.386 1.393-1.393 1.386-1.386-1.386-1.386-1.386-1.386-1.386-1.386-1.392-1.393-1.386-1.386-1.386-1.385-1.386-1.386-1.386-1.386-1.386-1.386-1.386-1.386-1.386-1.386-1.386 1.386z"/>
  <path d="m61.094 40.302 1.386 1.386 1.386 1.386 1.386-1.386 1.386-1.386-1.386-1.386-1.386-1.386-1.386 1.386zM45.842 25.05l1.386-1.386 1.386-1.386-1.386-1.386-1.386-1.386-1.386 1.386-1.386 1.386 1.386 1.386z"/>
  <path d="m61.095 45.846 1.385 1.386 1.386 1.386 1.386-1.386 1.386-1.386-1.386-1.386-1.386-1.386-1.386 1.386zM40.298 25.05l1.386-1.386 1.386-1.386-1.386-1.386-1.386-1.386-1.385 1.386-1.386 1.386 1.386 1.386z"/>
  <path d="m61.095 51.389-1.386 1.386-1.386 1.386-1.386 1.386-1.386 1.386-1.386 1.386-1.393 1.393-1.386 1.386L50 62.484l-1.386 1.386L50 65.256l1.386 1.386 1.386-1.386 1.386-1.386 1.386-1.386 1.393-1.393 1.386-1.386 1.386 1.386 1.386 1.386-1.386 1.386 1.393 1.393 1.385 1.386 1.386 1.386 1.386 1.386 1.386 1.386 1.386 1.385 1.386 1.386 1.386 1.386 1.386 1.386 1.386 1.386 1.386 1.386 1.386 1.386 1.386-1.386 1.386 1.386 1.386-1.386-1.386-1.386 1.386-1.386-1.386-1.386-1.386-1.386-1.386-1.386-1.386-1.385-1.386-1.386-1.386-1.386-1.386-1.386-1.386-1.386-1.386-1.386-1.386-1.386-1.386-1.386-1.393-1.393-1.386 1.386-1.385-1.386-1.386-1.386 1.385-1.386 1.386-1.386 1.386-1.386 1.386-1.386 1.386-1.386-1.386-1.385-1.386-1.386-1.386 1.386zM36.14 34.752l-1.385 1.386-1.386-1.386 1.386-1.386z"/>
  <path d="m36.14 37.523-1.385 1.386-1.386-1.386 1.386-1.386z"/>
  <path d="m36.141 40.295-1.393 1.393-1.386-1.386 1.393-1.393zM36.133 43.074l-1.386 1.386-1.386-1.386 1.386-1.386zM27.818 37.53l1.386-1.386 1.386 1.386-1.386 1.386z"/>
  <path d="m36.133 45.846-1.386 1.386-1.386-1.386 1.386-1.386zM27.818 40.302l1.386-1.386 1.386 1.386-1.386 1.386zM25.046 34.758l1.386-1.386 1.393-1.393 1.386-1.386 1.386-1.385 1.386-1.386 1.386-1.386 1.386-1.386 1.386-1.386 1.386-1.386-1.386-1.386-1.393-1.393-1.386 1.386-1.386 1.386-1.386 1.386-1.386 1.386-1.386 1.386-1.386 1.386-1.386 1.385-1.393 1.393-1.386 1.386-1.386 1.386-1.386 1.386 1.393 1.393 1.386 1.386 1.386-1.386zM36.133 48.618l-1.386 1.385-1.386-1.385 1.386-1.386z"/>
  <path d="m27.818 43.074 1.386-1.386 1.386 1.386-1.386 1.386zM45.842 61.098l-1.386 1.386-1.386 1.386 1.386 1.386 1.386 1.386 1.386-1.386 1.386-1.386-1.386-1.386zM36.134 51.39l-1.386 1.386-1.386-1.386 1.386-1.386z"/>
  <path d="m27.818 45.846 1.386-1.386 1.386 1.386-1.386 1.386zM25.046 40.302l-1.386-1.386-1.386-1.386-1.386 1.386-1.386 1.386 1.386 1.386 1.386 1.386 1.386-1.386zM27.818 48.618l1.386-1.386 1.386 1.386-1.386 1.386zM40.298 61.098l-1.385 1.386-1.386 1.386 1.386 1.386 1.386 1.386 1.385-1.386 1.386-1.386-1.386-1.386z"/>
  <path d="M25.046 45.846 23.66 44.46l-1.386-1.386-1.386 1.386-1.386 1.386 1.386 1.386 1.386 1.386 1.386-1.386z"/>
  <path d="m34.755 61.098-1.386-1.386-1.393-1.393-1.386-1.386-1.386-1.386-1.386-1.386-1.386-1.386-1.386-1.386-1.386-1.386-1.386-1.385-1.386 1.386-1.386 1.385 1.386 1.386 1.386 1.386 1.386 1.386 1.386 1.386 1.386 1.386 1.386 1.386 1.386 1.386 1.393 1.393 1.386 1.386 1.386 1.386 1.386 1.386 1.386-1.386 1.386-1.386-1.386-1.386z"/>
</svg>