<svg xmlns="http://www.w3.org/2000/svg" viewBox="0 0 100 100">
  <path d="M44.12 61.765v-1.96h1.96v-1.96h1.96v-1.96H50v-1.96h1.96v-1.96h1.96v-1.96h1.97v-1.97h1.96v-1.96h1.96v-3.92h1.96v-1.96h-5.88v1.96H51.96v1.96h-3.92v1.96h-3.92v1.96H40.2v1.97h-3.92v1.96h-5.89v1.96h1.97v1.96h-1.97v3.92h-1.96v3.92h-1.96v3.92h-1.96v3.92h5.88v-1.96H34.32v-3.92h3.92v-1.96h3.92v-1.96zM77.45 26.475v3.92h1.96v-5.88h-1.96zM75.49 32.355v3.92h1.96v-5.88h-1.96zM73.53 38.235v1.96h1.96v-3.92h-1.96zM71.57 42.155v1.96h1.96v-3.92h-1.96zM73.53 24.515h3.92v-1.97h-7.84v1.97h1.96zM69.61 46.075v1.96h1.96v-3.92h-1.96zM67.65 50.005v1.96h1.96V48.035h-1.96zM65.69 53.925v1.96h1.96v-3.92h-1.96zM67.65 26.475h1.96v-1.96h-5.88v1.96h1.96zM63.73 57.845v1.96h1.96v-3.92h-1.96zM61.77 61.765v1.96h1.96v-3.92h-1.96z"/>
  <path d="M59.81 65.685v1.96h1.96v-3.92h-1.96zM61.77 28.435h1.96v-1.96h-5.88v1.96h1.96zM57.85 69.605v1.96h1.96v-3.92h-1.96zM55.89 73.535v1.96h1.96V71.565h-1.96zM53.92 75.495h1.97v1.96h-1.97zM55.89 30.395h1.96v-1.96h-5.89v1.96h1.96zM51.96 73.535h1.96v1.96h-1.96zM50 71.565h1.96v1.97H50zM48.04 69.605H50v1.96h-1.96zM50 32.355h1.96v-1.96h-5.88v1.96h1.96zM46.08 67.645h1.96v1.96h-1.96zM44.12 65.685h1.96v1.96h-1.96zM42.16 63.725h1.96v1.96h-1.96zM44.12 34.315h1.96v-1.96H40.2v1.96h1.96zM38.24 36.275h1.96v-1.96h-5.88v1.96h1.96zM32.36 38.235h1.96v-1.96h-5.89v1.96h1.96zM28.43 50.005h1.96v1.96h-1.96zM26.47 48.035h1.96v1.97h-1.96z"/>
  <path d="M24.51 46.075h1.96v1.96h-1.96zM26.47 40.195h1.96v-1.96h-5.88v1.96h1.96zM22.55 44.115h1.96v1.96h-1.96zM22.55 40.195h-1.96v3.92h1.96v-1.96z"/>
</svg>