<svg xmlns="http://www.w3.org/2000/svg" viewBox="0 0 960 960">
  <path d="M300 840V690h60v30h-30v120Zm0-150v-60h-30v60Zm60-90h30v-30h-30Zm30-30h120v-30H390Zm-120-30h-30v90h30Zm30-30h-30v30h30Zm210 30h30v-30h30v-30h-60Zm-180-60h-30v30h30Zm270 0V360h-30v120Zm-90-120h-30v90H330v30h180Zm-210 30v60h30v-60Zm300 90v30h60v180h-30v30h30v120h30V360h-30v120Zm-180-90v-30h-30v30Zm240-60h-60v30h60Zm-210-60h-30v90h30Zm-180 30v90h30v-90Zm120 60v-60h-30v60Zm120 0h60v-30h-30v-60h-30Zm-30-180h-30v90h30Zm90 90v-90h-30v90Zm-210 30v-90h-30v90Zm-120-90v90h30v-90Zm300-60h-60v30h60Zm-210 30h-60v30h60Zm180 570h120v-30H510Zm-90 0v-30h-60v30Z"/>
</svg>