<svg xmlns="http://www.w3.org/2000/svg" viewBox="0 0 100 100">
  <path d="M64.727 25.75h2v2h-2v-2zM50.727 27.75h4v2h-4v-2zM62.727 27.75h2v2h4v2h-10v-2h4v-2zM68.727 27.75h2v2h-2v-2zM48.727 29.75h2v8h-2v-2h-12v2h-4v-2h2v-2h14v-4zM54.727 29.75h2v2h-2v-2zM26.727 31.75h2v2h-2v-2zM52.727 31.75h2v4h-2v-4zM56.727 31.75h2v2h-2v-2zM68.727 31.75h4v2h-4v-2zM74.727 31.75h4v6h-2v-4h-2v-2zM24.727 33.75h2v4h-2v-4z"/>
  <path d="M28.727 33.75h2v4h2v2h-4v4h-2v12h2v2h-2v10h6v-8h4v2h-2v4h2v-4h8v6h6v-8h2v12h-10v-8h-4v6h-6v2h-8v-30h2v-4h2v-4zM72.727 33.75h2v2h-2v-2zM50.727 37.75h2v8h-2v-8zM74.727 37.75h2v8h-2v-8zM58.727 39.75h2v2h-2v-2zM70.727 39.75h2v2h-2v-2zM62.727 43.75h8v2h-8v-2z"/>
  <path d="M48.727 45.75h2v10h-2v-10zM60.727 45.75h2v2h-2v-2zM70.727 45.75h2v2h-2v-2zM76.727 45.75h2v10h-2v-10zM58.727 47.75h2v6h-2v-6zM62.727 47.75h2v4h-2v-4zM68.727 47.75h2v4h-2v-4zM72.727 47.75h2v6h-2v-6zM60.727 53.75h12v2h-12v-2zM50.727 55.75h2v2h-2v-2zM74.727 55.75h2v2h-2v-2zM52.727 57.75h2v2h-2v-2zM72.727 57.75h2v2h-2v-2zM54.727 59.75v10h8v-8h10v-2h-18zm6 6h-4v-4h4v4z"/>
</svg>