<svg xmlns="http://www.w3.org/2000/svg" viewBox="0 0 100 100">
  <path d="M41 26h4v2h-4v-2zM39 28h2v4h-2v-4zM45 28h4v2h-4v-2zM49 30h4v2h-4v-2zM41 32h4v2h4v2h-2v2h-2v2h-4v-2h-2v-4h2v-2zM53 32h4v2h-4v-2zM57 34h4v2h-4v-2zM49 36h4v2h-4v-2zM61 36h4v2h-4v-2zM37 38h2v2h-2v-2zM53 38h4v2h-4v-2zM65 38h4v2h-4v-2zM35 40h2v4h-2v-4zM69 40h4v2h-4v-2zM73 42h6v2h-4v2h-2v-4zM33 44h2v2h-2v-2zM41 42v6h6v-6h-6zm4 4h-2v-2h2v2zM53 44h4v2h2v4h-2v2h-4v-2h-2v-4h2v-2zM65 44v2h-2v-2h2v-2h-2v-2h-6v2h4v6h6v-2h4v-2zM79 44h2v4h-2v-4zM31 46h2v2h-2v-2zM71 46h2v2h-2v-2zM37 48h4v2h2v4h-2v2h-4v-2h-2v-4h2v-2zM69 48h2v2h-2v-2zM73 48h6v2h-4v2h-4v-2h2v-2zM63 50h6v2h-6v-2zM61 52h2v2h-2v-2zM69 52h2v2h-2v-2zM49 54h6v2h-6v-2zM59 54h2v2h2v2h-2v2h-4v-2h2v-4zM63 54h6v2h-6v-2zM31 52v-4h-2v2h-2v6h2v2h-2v-2h-2v2h-2v2h8v-6h-2v-2zM45 56h4v2h-4v-2zM55 56h2v2h-2v-2zM41 58h4v2h-2v2h2v2h-2v2h-2v-8zM49 58h6v2h-6v-2zM21 60h2v4h-2v-4zM45 60h4v2h-4v-2z"/>
  <path d="M25 62h4v2h2v8h-2v-4h-4v2h-6v-6h2v4h2v-4h2v-2zM33 60v12h2v-6h4v-6h-6zm4 4h-2v-2h2v2zM39 66h2v2h-2v-2zM31 72h2v2h-2v-2z"/>
</svg>