<svg xmlns="http://www.w3.org/2000/svg" viewBox="0 0 100 100">
  <path d="M89.215 46.08h-3.92v-1.96h-3.92v-1.96h-3.92v1.96h-3.92v3.92h9.8V50h-9.8v-1.96h-1.96v-3.92h1.96v-1.96h3.92v-1.97h-3.92v-1.96H28.435v-1.96h-1.96v-1.96h-1.96v-1.96h-1.96v-1.96h-1.96v-1.96h-1.97v-1.96h-1.96v-1.96h-5.88v1.96h-1.96v7.84h1.96v5.88h1.96v5.89h1.96V50h3.92v1.96H22.555v1.96h3.92v1.96h3.92v1.96H44.115v-1.96H59.805v1.96h1.96v1.96h1.96v-1.96H87.255v-1.96h1.96v-1.96h1.96v-5.88h-1.96v-1.96zm-21.57-1.96v1.96h-1.96v1.96h-1.96v-1.96h-1.96v-1.96h1.96v-1.96h1.96v1.96h1.96zm-43.13 1.96h1.96v-1.96h-1.96v-1.96h1.96v1.96h1.96v1.96h-1.96v1.96h-1.96v-1.96zm35.29-1.96v1.96h-1.96v1.96h-1.96v-1.96h-1.96v-1.96h1.96v-1.96h1.96v1.96h1.96zm-7.84 0v1.96h-1.96v1.96h-1.96v-1.96h-1.96v-1.96h1.96v-1.96h1.96v1.96h1.96zm-7.85 0v1.96h-1.96v1.96h-1.96v-1.96h-1.96v-1.96h1.96v-1.96h1.96v1.96h1.96zm-7.84 0v1.96h-1.96v1.96h-1.96v-1.96h-1.96v-1.96h1.96v-1.96h1.96v1.96h1.96z"/>
  <path d="M63.725 44.12h1.96v1.96h-1.96zM59.805 57.84H46.085v1.96h-1.97v3.92h11.77v1.97h1.96v1.96h1.96V63.72h1.96V59.8h-1.96zM55.885 44.12h1.96v1.96h-1.96z"/>
  <path d="M55.885 65.69H44.115v1.96h-1.96v5.88h1.96v1.96H53.925v-1.96h1.96v-1.96h1.96v-3.92h-1.96zM48.045 44.12h1.96v1.96h-1.96zM40.195 44.12h1.96v1.96h-1.96zM32.355 44.12h1.96v1.96h-1.96z"/>
</svg>