<svg xmlns="http://www.w3.org/2000/svg" viewBox="0 0 100 100">
  <path d="M79.41 37.25h-1.96v-1.96h-7.84v1.96H30.39v-1.96h-7.84v1.96h-1.96v1.97h-1.96V60.78h1.96v1.97h1.96v1.96H34.31V78.43h1.96V60.78H63.73V78.43h1.96V64.71H77.45v-1.96h1.96v-1.97h1.96V39.22h-1.96v-1.97zm-13.72 1.97h1.96v1.96h1.96v1.96h-1.96v1.96h-3.92v-1.96h-1.96v-1.96h1.96v-1.96h1.96zm0 11.76H34.31v-1.96H65.69v1.96zm0 11.77V58.82H34.31V62.75h-1.96v-5.89H67.65v5.89h-1.96zm13.72-21.57v1.96h-1.96v1.96h-3.92v-1.96h-1.96v-1.96h1.96v-1.96h3.92v1.96h1.96z"/>
  <path d="M73.53 41.18v1.96h3.92v-1.96h-1.96zM63.73 41.18v1.96h3.92v-1.96h-1.96zM59.8 78.43H36.27v1.96H63.73v-1.96h-1.96zM55.88 64.71H40.2v1.96H59.8v-1.96h-1.96zM53.92 72.55H40.2v1.96H57.84v-1.96h-1.96zM53.92 70.59h1.96v-1.96H50v1.96h1.96zM44.12 70.59h3.92v-1.96H40.2v1.96h1.96zM40.2 21.57H63.73v-1.96H36.27v1.96h1.97z"/>
  <path d="M34.31 35.29H69.61v-3.92h-1.96v-1.96h-1.96v-7.84h-1.96V33.33H36.27V21.57h-1.96v7.84h-1.96v1.96h-1.96v3.92h1.96z"/>
</svg>