<svg xmlns="http://www.w3.org/2000/svg" viewBox="0 0 100 100">
  <path d="M88.95 26.73V46.2h4.87V26.73h-4.87zM84.09 46.2h4.87v4.87h-4.87zM84.09 21.86h4.87v4.87h-4.87zM79.22 70.55v4.87h9.73v-9.74h-4.86v4.87h-4.87zM74.35 80.29h-9.74v4.87h14.61v-9.74h-4.87v4.87zM79.22 65.68h4.87v-4.87h-9.74v4.87h4.87zM74.35 51.07h-9.74v4.87h4.87v4.87h4.87v-4.87h9.74v-4.87h-9.74zM74.35 36.46h4.87v4.87h-4.87zM79.22 21.86h4.87v-4.87H69.48v4.87h9.74zM69.48 65.68h4.87v4.87h-4.87zM64.61 60.81h4.87v4.87h-4.87zM69.48 36.46h4.87v-4.87h-9.74v4.87h4.87zM64.61 21.86h4.87v4.87h-4.87zM59.74 75.42h4.87v4.87h-4.87zM59.74 55.94h4.87v4.87h-4.87zM59.74 46.2h4.87v4.87h-4.87zM59.74 26.73h4.87v4.87h-4.87zM59.74 65.68h-4.87v9.74h4.87v-9.74zM54.87 51.07h4.87v4.87h-4.87z"/>
  <path d="M54.87 41.33v4.87h4.87v-4.87h4.87v-4.87h-4.87v-4.87h-4.87v9.74zM54.87 55.94H50v4.87h-4.87v4.87h9.74v-9.74z"/>
  <path d="M54.87 51.07V46.2h-9.74v9.74H50v-4.87h4.87zM54.87 31.59v-4.86h-9.74v4.86h9.74zM40.26 70.55v4.87h4.87v-9.74h-4.87v4.87zM40.26 55.94h4.87v4.87h-4.87zM35.39 75.42h4.87v4.87h-4.87zM35.39 60.81h4.87v4.87h-4.87zM35.39 46.2h4.87v4.87h-4.87zM35.39 36.46v4.87h4.87v4.87h4.87V31.59h-4.87v4.87h-4.87z"/>
  <path d="M35.39 26.73h4.87v4.87h-4.87zM30.52 65.68h4.87v4.87h-4.87zM30.52 31.59h-4.87v4.87h9.74v-4.87h-4.87zM30.52 21.86h4.87v4.87h-4.87zM25.65 80.29v-4.87h-4.87v9.74h14.61v-4.87h-9.74zM30.52 55.94h4.87v-4.87H15.91v4.87h9.74v4.87h4.87v-4.87zM25.65 65.68v-4.87h-9.74v4.87h9.74zM20.78 36.46h4.87v4.87h-4.87zM25.65 21.86h4.87v-4.87H15.91v4.87h9.74z"/>
  <path d="M15.91 70.55v-4.87h-4.86v9.74h9.73v-4.87h-4.87zM11.05 46.2h4.87v4.87h-4.87zM11.05 21.86h4.87v4.87h-4.87zM11.05 36.46v-9.73H6.18V46.2h4.87v-9.74z"/>
</svg>