<svg xmlns="http://www.w3.org/2000/svg" viewBox="-5 -10 110 115">
  <path d="M38 84h5v3h-2v5h-3v3h24v-3h-3v-5h-2v-3h5v3h3v3h18V79h-3v-3h-2v-5h-3v-2h-2v-3h-3v-3h-3v-2h-2V31h-3V21h-3v-5h-2v-6h-3V8h-3V5h-2v3h-3v2h-3v6h-2v5h-3v10h-3v30h-2v2h-3v3h-3v3h-2v2h-3v5h-2v3h-3v11h18v-3h3zM51 8v2h3v6h3v5h2v10h3v24h-3v27h-8v-3h-5V58h-3V42h-2V31h2v8h3v3h8v-3h3v-8h-3v-2h-8v2h-3V21h3v-8h3V8zm-5 31v-8h8v8zm27 30v2h2v5h3v3h2v8h-5v-3h-5v-2h-3V66h3v3zm-38-8h3v23h-5v-2h-8v-3h2v-8h3v-2h3v-3h2zm11 26h8v3h3v2h-8v-2h-3z"/>
</svg>