<svg xmlns="http://www.w3.org/2000/svg" viewBox="0 0 100 100">
  <path d="M78.43 28.43v-1.96h-3.92v-1.96h-3.92v-1.96h-3.92v-1.96H56.86v3.92H54.9v3.92h-1.96v1.96h-5.88v-1.96H45.1v-3.92h-1.96v-3.92H33.33v1.96h-3.92v1.96h-3.92v1.96h-3.92v1.96h-3.92v3.92h1.96v3.92h1.96V40.2h1.96v3.92h3.92v-1.96h1.96V40.2h1.96V65.69h1.96v9.8h1.96v1.96h1.96v1.96H58.82v-1.96h7.85v-1.96h1.96V40.2h1.96v1.96h1.96v1.96h3.92V40.2h1.96V36.27h1.96v-3.92h1.96v-3.92h-3.92zm-17.65 9.81v7.84h-1.96v1.96H54.9v-1.96h-1.96v-7.84h7.84zm-19.6-15.69v3.92h1.96v3.92h1.96v1.96h9.8v-1.96h1.96v-3.92h1.96v-3.92h1.96v3.92h-1.96v3.92h-1.96v1.96H54.9v1.96h-9.8v-1.96h-1.96v-1.96h-1.96v-3.92h-1.96v-3.92h1.96zM25.49 40.2v-1.96h-1.96V34.31h-1.96v-1.96h1.96v1.96h1.96V38.24h1.96v1.96h-1.96zm52.94-5.89h-1.96V38.24h-1.96v1.96h-1.96v-1.96h1.96V34.31h1.96v-1.96h1.96v1.96z"/>
</svg>