<svg xmlns="http://www.w3.org/2000/svg" viewBox="-5 -10 110 115">
  <path d="M36.367 0h-4.543v4.547h4.543zM63.633 0v4.547h4.543V0zM27.281 13.637h4.543l-.004-9.09h-4.543v9.094zM68.18 4.547v9.094h4.543l-.004-9.094h-4.543z"/>
  <path d="M22.738 31.82h4.543V13.64h-4.543zM77.262 31.82V13.64h-4.543v18.18zM13.648 18.18H9.105v13.637h4.543zM59.09 50h4.543V22.727H59.09V18.18H40.914v4.547h-4.543V50h4.543v4.547H59.09zm-4.547-9.09h-9.09v-4.547H40.91V27.27h4.543v-4.547h9.09v4.547h4.543v9.093h-4.543zM86.352 31.82h4.543V18.183h-4.543zM18.195 36.363v-4.547h-4.543v4.547zM31.824 36.363v-4.547h-4.543v4.547z"/>
  <path d="M68.18 36.363h4.543v-4.547H68.18zM81.809 36.363h4.543v-4.547h-4.543zM22.738 40.91v-4.547h-4.543v4.547zM77.262 40.91h4.543v-4.547h-4.543zM31.824 45.457V40.91h-9.09v4.547zM68.18 45.457h9.09V40.91h-9.09zM31.824 54.543h-9.09v4.547h9.09zM68.18 54.543v4.547h9.09v-4.547zM22.738 59.09h-4.543v9.094h4.543zM59.09 77.273V63.636h-4.543v-4.547h-9.09v4.547h-4.543v13.637h4.543v4.547h9.09v-4.547zM81.809 68.184V59.09h-4.543v9.094zM36.367 63.637h-4.543v9.094h4.543zM63.633 63.637v9.094h4.543v-9.094zM18.195 68.184h-4.543v18.18h4.543zM86.352 86.363v-18.18h-4.543v18.18z"/>
  <path d="M31.824 72.73h-4.543v27.273h4.543zM72.719 100V72.727h-4.543V100zM40.91 86.363h4.543v-4.547H40.91zM59.09 86.363v-4.547h-4.543v4.547z"/>
</svg>