<svg xmlns="http://www.w3.org/2000/svg" viewBox="0 0 100 100">
  <path d="M83.335 49.025h-3.92v-1.96h-5.88v3.92h5.88v1.96h7.84v-3.92h-1.96zM79.415 72.555h-1.96v-1.96h-1.96v-1.96h-1.96v-1.96h-1.96v-1.97h-3.92V68.635h1.96v1.96h1.96v1.96h1.96v1.96h1.96v1.96h1.96v1.96h3.92v-3.92h-1.96zM71.575 33.335v-1.96h1.96v-1.96h1.96v-1.96h1.96v-1.96h1.96v-1.96h1.96v-3.92h-3.92v1.96h-1.96v1.96h-1.96v1.96h-1.96v1.96h-1.96v1.96h-1.96v3.92h1.96zM69.615 58.825V47.065h-1.96v-5.89h-3.92v5.89h1.96V58.825h1.96zM61.765 58.825v3.92H65.695v-3.92h-1.96zM63.735 56.865v-7.84H59.805v7.84h1.96zM63.735 37.255h-13.73v1.96h-3.92V43.145h3.92v-1.97H63.735v-1.96zM57.845 62.745V66.675h3.92V62.745h-1.96zM59.805 60.785v-3.92h-3.92v3.92h1.96zM59.805 45.105h-9.8v3.92h9.8v-1.96zM53.925 66.675H42.165v3.92H57.845v-3.92h-1.96zM50.005 11.765v7.85h-1.96v7.84h3.92v-7.84h1.96v-7.85h-1.96zM48.045 74.515v7.84h-1.96v5.88h3.92v-5.88h1.96v-7.84h-1.96zM46.085 64.705h9.8v-3.92h-9.8v1.96zM46.085 49.025v5.88h3.92v-5.88h-1.96zM46.085 35.295H57.845v-3.92H42.165v3.92h1.96zM42.165 60.785h3.92v-3.92h-3.92v1.96zM42.165 43.145v3.92h3.92v-3.92h-1.96zM42.165 62.745H38.235V66.675H42.165v-1.97zM42.165 39.215v-3.92H38.235v3.92h1.97zM38.235 47.065v9.8H42.165v-9.8h-1.96zM38.235 58.825h-3.92v3.92h3.92v-1.96zM38.235 43.145V39.215h-3.92V43.145h1.96zM34.315 54.905V43.145h-3.92V58.825h3.92v-1.96zM32.355 33.335h1.96v-3.92h-1.96v-1.96h-1.96v-1.96h-1.96v-1.96h-1.96v-1.96h-1.96v-1.96h-3.92v3.92h1.96v1.96h1.96v1.96h1.96v1.96h1.96v1.96h1.96v1.96zM28.435 64.705v1.97h-1.96v1.96h-1.96v1.96h-1.96v1.96h-1.96v1.96h-1.96v3.92h3.92v-1.96h1.96v-1.96h1.96v-1.96h1.96v-1.96h1.96v-1.96h1.96V64.705h-1.96zM20.595 49.025v1.96h5.88v-3.92h-5.88v-1.96h-7.85v3.92h5.89z"/>
</svg>