<svg xmlns="http://www.w3.org/2000/svg" viewBox="-5 -10 110 115">
  <path d="M99.984 0H74.996v6.25h12.496v6.25h6.246V25h6.246zM74.988 6.25h-6.246v6.25h6.246zM68.742 12.5h-6.246v6.25h6.246z"/>
  <path d="M81.234 18.746h6.246v-6.25h-6.246zM62.492 18.746h-6.246v6.25h6.246zM74.988 25h6.246v-6.25h-6.246zM56.246 25H50v6.25h6.246zM68.742 31.25h6.246V25h-6.246zM87.484 31.25h6.246V25h-6.246zM50 31.25h-6.246v6.25H50zM62.492 37.5h6.246v-6.25h-6.246zM81.234 37.5h6.246v-6.25h-6.246zM43.75 62.5h-6.246v-6.25h-6.246V50h-6.246v-6.25h-6.246V37.5H12.52v18.746h6.246v6.25h6.246v6.25h6.246v6.25h6.246v6.25h6.246v6.25h18.742v-6.25h-6.246v-6.25H50v-6.25h-6.246v-6.25zM43.75 37.5h-6.246v6.25h6.246z"/>
  <path d="M56.246 43.75h6.246V37.5h-6.246zM74.988 43.75h6.246V37.5h-6.246zM37.504 43.75h-6.246V50h6.246zM50 49.996h6.246v-6.25H50zM68.742 49.996h6.246v-6.25h-6.246zM43.75 56.25h6.246V50H43.75zM62.492 56.25h6.246V50h-6.246zM56.246 62.5h6.246v-6.25h-6.246zM50 68.75h6.246V62.5H50zM25.008 68.75h-6.246V75h6.246zM18.762 75h-6.246v6.25h6.246z"/>
  <path d="M25.008 81.246h6.246v-6.25h-6.246zM12.516 93.75H6.27V87.5h6.246v-6.25l-12.5-.004v18.746h18.742v-12.5h-6.246v6.25zM18.762 87.5h6.246v-6.25h-6.246z"/>
</svg>