<svg xmlns="http://www.w3.org/2000/svg" viewBox="0 0 100 100">
  <path d="M76.47 46.07v-1.96h-3.92v-1.96h-5.88v-3.92h1.96v-9.8h-1.96v-1.96h-1.96v-1.96h-1.96v-1.96h-5.89v3.92H54.9v5.88h-1.96v1.96h-1.96v1.96h-1.96v1.96h-1.96v1.96h-5.88v1.96H37.25v1.96H21.57V75.49H43.14v1.96H70.59v-1.96h3.92v-1.96h1.96V69.6h1.96V48.04h-1.96v-1.97zM25.49 69.6v-3.92h1.96v-1.96h3.92v1.96h1.96v3.92h-1.96v1.97h-3.92V69.6h-1.96zM74.51 50V69.6h-1.96v1.97h-1.96v1.96H43.14v-1.96h-5.89V46.07H41.18v-1.96h5.88v-1.96h3.92v-1.96h1.96v-1.96h1.96v-1.96h1.96v-1.96h1.96v-7.84h1.96v1.96h1.97v1.96h1.96v7.84h-1.96v1.96h-1.97v3.92h1.97v1.96h9.8v1.97h1.96V50z"/>
  <path d="M31.37 69.6v-3.92h-3.92v3.92h1.96z"/>
</svg>