<svg xmlns="http://www.w3.org/2000/svg" viewBox="0 0 100 100">
  <path d="M80.39 36.275h-1.96v-1.96h-1.96v-1.96H49.02v-1.96h-1.96v-1.96h-5.88v1.96h-1.96v1.96H23.53v1.96h-1.96v1.96h-1.96v1.96h-1.96V73.535h1.96v1.96h1.96v1.96h1.96v3.92h-1.96v1.96h-1.96v1.96h7.84v-1.96h1.96v-1.96h1.96v-1.96H68.63v1.96h1.96v1.96h1.96v1.96h7.84v-1.96h-1.96v-1.96h-1.96v-3.92h1.96v-1.96h1.96v-1.96h1.96V38.235h-1.96v-1.96zm-1.96 9.81h-9.8v-1.96h9.8v1.96zm0 3.92h-9.8v-1.96h9.8v1.96zm0 3.92h-9.8v-1.96h9.8v1.96zm0 3.92h-9.8v-1.96h9.8v1.96zm-1.96 7.84v1.97h-1.96v1.96h-3.92v-1.96h-1.96V63.725h1.96v-1.96h3.92v1.96h1.96v1.96zm-52.94-27.45v-1.96H62.75v1.96h1.96v33.34h-1.96v1.96H23.53v-1.96h-1.96v-33.34h1.96z"/>
  <path d="M74.51 63.725h-3.92V67.655h3.92v-1.97zM72.55 20.595v-1.96h-3.92v1.96h1.96zM68.63 22.555v-1.96h-3.92v1.96h1.96zM64.71 24.515v-1.96H60.78v1.96h1.97zM58.82 46.085h1.96v1.96h-1.96zM60.78 26.475v-1.96h-3.92v1.96h1.96zM58.82 51.965v-1.96h-1.96v3.92h1.96zM56.86 28.435v-1.96h-3.92v1.96h1.96zM52.94 55.885h1.96v1.96h-1.96zM50.98 57.845h1.96v1.96h-1.96zM52.94 30.395v-1.96h-3.92v1.96h1.96zM50.98 61.765v-1.96h-3.92v1.96h1.96zM47.06 63.725v-1.96h-3.92v1.96h1.96zM43.14 65.685v-1.96h-3.92v1.96h1.96zM39.22 67.655v-1.97H35.29v1.97h1.96zM39.22 26.475h-1.97v3.92h1.97v-1.96zM37.25 22.555h-1.96v3.92h1.96v-1.96zM35.29 18.635h-1.96v3.92h1.96v-1.96zM33.33 14.705h-1.96V18.635h1.96v-1.97z"/>
</svg>