<svg xmlns="http://www.w3.org/2000/svg" viewBox="0 0 100 100">
  <path d="M84.31 40.195v-1.96h-1.96v-3.92h-1.96v-1.96h-1.96v-1.96h-1.96v-1.96h-1.96v-1.96h-1.96v-1.96h-3.92v-1.96h-3.92v-1.96h-5.89v-1.96h-5.88v-1.96h-1.96v-1.97h-1.96v1.97h-1.96v1.96h-5.88v1.96h-5.89v1.96h-3.92v1.96h-3.92v1.96h-1.96v1.96h-1.96v1.96h-1.96v1.96h-1.96v1.96h-1.96v3.92h-1.96V42.165h-1.96v5.88h1.96v-3.92h1.96v-1.96h3.92v-1.97h3.92v1.97h3.92v1.96h1.96v3.92h1.96v-3.92h1.96v-1.96H39.22v-1.97h3.92v1.97h3.92v1.96h1.96V81.375h1.96V44.125h1.96v-1.96h3.92v-1.97h3.92v1.97H64.71v1.96h1.96v3.92h1.96v-3.92h1.96v-1.96h3.92v-1.97h3.92v1.97h3.92v1.96h1.96v3.92h1.96v-5.88h-1.96v-1.97zM45.1 22.555h-1.96v1.96h-1.96v1.96h-1.96v1.96h-1.97v3.92h-1.96v3.92h-1.96v5.89h-1.96v-5.89h1.96v-3.92h1.96v-3.92h1.96v-1.96h1.97v-1.96h1.96v-1.96h1.96v-1.96h1.96v1.96zm5.88 0V42.165h-1.96V20.595h1.96v1.96zm17.65 15.68V42.165h-1.96v-5.89h-1.96v-3.92h-1.96v-3.92h-1.97v-1.96h-1.96v-1.96h-1.96v-1.96H54.9v-1.96h1.96v1.96h1.96v1.96h1.96v1.96h1.97v1.96h1.96v3.92h1.96v3.92h1.96v1.96zM47.06 81.375h1.96v1.96h-1.96zM45.1 83.335h1.96v1.96H45.1zM43.14 81.375h1.96v1.96h-1.96z"/>
  <path d="M43.14 73.535h1.96v1.96h-1.96zM43.14 77.455v-1.96h-1.96v5.88h1.96v-1.96z"/>
</svg>