<svg xmlns="http://www.w3.org/2000/svg" viewBox="0 0 100 100">
  <path d="M90.195 45.11h-1.96v-1.95h-1.96V56.85h1.96v-1.96h1.96v-1.96h1.96v-5.86h-1.96zM82.355 31.42h-3.92v1.96h-1.96v33.24h1.96v1.96h3.92v-1.96h1.96V33.38h-1.96v-1.96zm0 17.6V62.71h-1.96v1.96h-1.96v-1.96h1.96V47.07h1.96v1.95zm0-9.77v3.91h-1.96v-5.87h1.96v1.96zM72.555 31.42h-3.92v1.96h-1.97v33.24h1.97v1.96h3.92v-1.96h1.96V33.38h-1.96v-1.96zm0 27.38v1.96h-1.96v-3.91h1.96v1.95zm0-17.6V50.98h-1.96V39.25h1.96v1.95zM60.785 45.11H35.295V54.89H64.705V45.11h-1.96zM31.375 31.42h-3.92v1.96h-1.96v33.24h1.96v1.96h3.92v-1.96h1.96V33.38h-1.96v-1.96zm0 11.74V58.8h-1.96V41.2h1.96v1.96zM21.575 31.42H17.645v1.96h-1.96v33.24h1.96v1.96H21.575v-1.96h1.96V33.38h-1.96v-1.96zm0 9.78v3.91h-1.96v-5.86h1.96v1.95zM11.765 45.11h-1.96v1.96h-1.96v5.86h1.96v1.96h1.96v1.96h1.96V43.16h-1.96z"/>
</svg>