<svg xmlns="http://www.w3.org/2000/svg" preserveAspectRatio="xMidYMid slice" viewBox="0 0 800 800">
  <defs>
    <pattern id="heart" width="20" height="20" patternTransform="scale(40)" patternUnits="userSpaceOnUse" shape-rendering="crispEdges">
      <path fill="hsl(0, 0%, 0%)" d="M5 4h1v1H5zM6 4h1v1H6zM7 4h1v1H7zM8 4h1v1H8zM11 4h1v1h-1zM12 4h1v1h-1zM13 4h1v1h-1zM14 4h1v1h-1zM5 5h1v1H5zM6 5h1v1H6zM7 5h1v1H7zM8 5h1v1H8zM11 5h1v1h-1zM12 5h1v1h-1zM13 5h1v1h-1zM14 5h1v1h-1zM3 6h1v1H3zM4 6h1v1H4z"/>
      <path fill="hsl(0, 100%, 50%)" d="M5 6h1v1H5zM6 6h1v1H6zM7 6h1v1H7zM8 6h1v1H8z"/>
      <path fill="hsl(0, 0%, 0%)" d="M9 6h1v1H9zM10 6h1v1h-1z"/>
      <path fill="hsl(0, 100%, 50%)" d="M11 6h1v1h-1zM12 6h1v1h-1zM13 6h1v1h-1zM14 6h1v1h-1z"/>
      <path fill="hsl(0, 0%, 0%)" d="M15 6h1v1h-1zM16 6h1v1h-1zM3 7h1v1H3zM4 7h1v1H4z"/>
      <path fill="hsl(0, 100%, 50%)" d="M5 7h1v1H5zM6 7h1v1H6zM7 7h1v1H7zM8 7h1v1H8z"/>
      <path fill="hsl(0, 0%, 0%)" d="M9 7h1v1H9zM10 7h1v1h-1z"/>
      <path fill="hsl(0, 100%, 50%)" d="M11 7h1v1h-1zM12 7h1v1h-1zM13 7h1v1h-1zM14 7h1v1h-1z"/>
      <path fill="hsl(0, 0%, 0%)" d="M15 7h1v1h-1zM16 7h1v1h-1zM3 8h1v1H3zM4 8h1v1H4z"/>
      <path fill="hsl(0, 100%, 50%)" d="M5 8h1v1H5zM6 8h1v1H6zM7 8h1v1H7zM8 8h1v1H8zM9 8h1v1H9zM10 8h1v1h-1zM11 8h1v1h-1zM12 8h1v1h-1zM13 8h1v1h-1zM14 8h1v1h-1z"/>
      <path fill="hsl(0, 0%, 0%)" d="M15 8h1v1h-1zM16 8h1v1h-1zM3 9h1v1H3zM4 9h1v1H4z"/>
      <path fill="hsl(0, 100%, 50%)" d="M5 9h1v1H5zM6 9h1v1H6zM7 9h1v1H7zM8 9h1v1H8zM9 9h1v1H9zM10 9h1v1h-1zM11 9h1v1h-1zM12 9h1v1h-1zM13 9h1v1h-1zM14 9h1v1h-1z"/>
      <path fill="hsl(0, 0%, 0%)" d="M15 9h1v1h-1zM16 9h1v1h-1zM5 10h1v1H5zM6 10h1v1H6z"/>
      <path fill="hsl(0, 100%, 50%)" d="M7 10h1v1H7zM8 10h1v1H8zM9 10h1v1H9zM10 10h1v1h-1zM11 10h1v1h-1zM12 10h1v1h-1z"/>
      <path fill="hsl(0, 0%, 0%)" d="M13 10h1v1h-1zM14 10h1v1h-1zM5 11h1v1H5zM6 11h1v1H6z"/>
      <path fill="hsl(0, 100%, 50%)" d="M7 11h1v1H7zM8 11h1v1H8zM9 11h1v1H9zM10 11h1v1h-1zM11 11h1v1h-1zM12 11h1v1h-1z"/>
      <path fill="hsl(0, 0%, 0%)" d="M13 11h1v1h-1zM14 11h1v1h-1zM7 12h1v1H7zM8 12h1v1H8z"/>
      <path fill="hsl(0, 100%, 50%)" d="M9 12h1v1H9zM10 12h1v1h-1z"/>
      <path fill="hsl(0, 0%, 0%)" d="M11 12h1v1h-1zM12 12h1v1h-1zM7 13h1v1H7zM8 13h1v1H8z"/>
      <path fill="hsl(0, 100%, 50%)" d="M9 13h1v1H9zM10 13h1v1h-1z"/>
      <path fill="hsl(0, 0%, 0%)" d="M11 13h1v1h-1zM12 13h1v1h-1zM9 14h1v1H9zM10 14h1v1h-1zM9 15h1v1H9zM10 15h1v1h-1z"/>
    </pattern>
  </defs>
  <rect width="100%" height="100%" fill="url(#heart)"/>
</svg>