<svg xmlns="http://www.w3.org/2000/svg" preserveAspectRatio="xMidYMid slice" viewBox="0 0 800 800">
  <defs>
    <pattern id="cardBack" width="20" height="20" patternTransform="scale(8)" patternUnits="userSpaceOnUse" shape-rendering="crispEdges">
      <path fill="hsl(0, 0%, 0%)" d="M3 0h1v1H3zM4 0h1v1H4zM5 0h1v1H5zM14 0h1v1h-1zM15 0h1v1h-1zM16 0h1v1h-1zM2 1h1v1H2zM3 1h1v1H3zM6 1h1v1H6zM13 1h1v1h-1z"/>
      <path fill="hsl(0, 0%, 60%)" d="M14 1h1v1h-1zM15 1h1v1h-1z"/>
      <path fill="hsl(0, 0%, 0%)" d="M16 1h1v1h-1zM17 1h1v1h-1zM1 2h1v1H1zM2 2h1v1H2zM7 2h1v1H7zM12 2h1v1h-1z"/>
      <path fill="hsl(0, 0%, 60%)" d="M13 2h1v1h-1zM14 2h1v1h-1zM15 2h1v1h-1z"/>
      <path fill="hsl(0, 0%, 0%)" d="M17 2h1v1h-1zM18 2h1v1h-1zM0 3h1v1H0zM1 3h1v1H1zM8 3h1v1H8zM11 3h1v1h-1z"/>
      <path fill="hsl(0, 0%, 60%)" d="M12 3h1v1h-1zM13 3h1v1h-1zM14 3h1v1h-1z"/>
      <path fill="hsl(0, 0%, 0%)" d="M18 3h1v1h-1zM19 3h1v1h-1zM0 4h1v1H0z"/>
      <path fill="hsl(0, 0%, 60%)" d="M1 4h1v1H1zM2 4h1v1H2z"/>
      <path fill="hsl(0, 0%, 0%)" d="M9 4h1v1H9zM10 4h1v1h-1z"/>
      <path fill="hsl(0, 0%, 60%)" d="M11 4h1v1h-1zM12 4h1v1h-1zM13 4h1v1h-1z"/>
      <path fill="hsl(0, 0%, 0%)" d="M19 4h1v1h-1zM0 5h1v1H0z"/>
      <path fill="hsl(0, 0%, 60%)" d="M1 5h1v1H1zM2 5h1v1H2zM3 5h1v1H3z"/>
      <path fill="hsl(0, 0%, 0%)" d="M9 5h1v1H9z"/>
      <path fill="hsl(0, 0%, 60%)" d="M10 5h1v1h-1zM11 5h1v1h-1zM12 5h1v1h-1z"/>
      <path fill="hsl(0, 0%, 0%)" d="M17 5h1v1h-1zM18 5h1v1h-1zM19 5h1v1h-1zM1 6h1v1H1z"/>
      <path fill="hsl(0, 0%, 60%)" d="M2 6h1v1H2zM3 6h1v1H3zM4 6h1v1H4z"/>
      <path fill="hsl(0, 0%, 0%)" d="M8 6h1v1H8z"/>
      <path fill="hsl(0, 0%, 60%)" d="M9 6h1v1H9zM10 6h1v1h-1zM11 6h1v1h-1z"/>
      <path fill="hsl(0, 0%, 0%)" d="M16 6h1v1h-1zM17 6h1v1h-1zM18 6h1v1h-1zM2 7h1v1H2z"/>
      <path fill="hsl(0, 0%, 60%)" d="M3 7h1v1H3zM4 7h1v1H4zM5 7h1v1H5z"/>
      <path fill="hsl(0, 0%, 0%)" d="M7 7h1v1H7z"/>
      <path fill="hsl(0, 0%, 60%)" d="M8 7h1v1H8zM9 7h1v1H9zM10 7h1v1h-1z"/>
      <path fill="hsl(0, 0%, 0%)" d="M15 7h1v1h-1zM16 7h1v1h-1zM17 7h1v1h-1zM3 8h1v1H3z"/>
      <path fill="hsl(0, 0%, 60%)" d="M4 8h1v1H4zM5 8h1v1H5z"/>
      <path fill="hsl(0, 0%, 0%)" d="M6 8h1v1H6z"/>
      <path fill="hsl(0, 0%, 60%)" d="M7 8h1v1H7zM8 8h1v1H8zM9 8h1v1H9z"/>
      <path fill="hsl(0, 0%, 0%)" d="M14 8h1v1h-1zM15 8h1v1h-1zM16 8h1v1h-1zM4 9h1v1H4zM5 9h1v1H5z"/>
      <path fill="hsl(0, 0%, 60%)" d="M6 9h1v1H6zM7 9h1v1H7zM8 9h1v1H8z"/>
      <path fill="hsl(0, 0%, 0%)" d="M13 9h1v1h-1zM14 9h1v1h-1zM15 9h1v1h-1zM4 10h1v1H4z"/>
      <path fill="hsl(0, 0%, 60%)" d="M5 10h1v1H5zM6 10h1v1H6zM7 10h1v1H7z"/>
      <path fill="hsl(0, 0%, 0%)" d="M12 10h1v1h-1zM13 10h1v1h-1zM14 10h1v1h-1zM15 10h1v1h-1zM3 11h1v1H3z"/>
      <path fill="hsl(0, 0%, 60%)" d="M4 11h1v1H4zM5 11h1v1H5zM6 11h1v1H6z"/>
      <path fill="hsl(0, 0%, 0%)" d="M11 11h1v1h-1zM12 11h1v1h-1zM13 11h1v1h-1zM16 11h1v1h-1zM2 12h1v1H2z"/>
      <path fill="hsl(0, 0%, 60%)" d="M3 12h1v1H3zM4 12h1v1H4zM5 12h1v1H5z"/>
      <path fill="hsl(0, 0%, 0%)" d="M10 12h1v1h-1zM11 12h1v1h-1zM12 12h1v1h-1zM17 12h1v1h-1zM1 13h1v1H1z"/>
      <path fill="hsl(0, 0%, 60%)" d="M2 13h1v1H2zM3 13h1v1H3zM4 13h1v1H4z"/>
      <path fill="hsl(0, 0%, 0%)" d="M9 13h1v1H9zM10 13h1v1h-1zM11 13h1v1h-1zM18 13h1v1h-1zM0 14h1v1H0z"/>
      <path fill="hsl(0, 0%, 60%)" d="M1 14h1v1H1zM2 14h1v1H2zM3 14h1v1H3z"/>
      <path fill="hsl(0, 0%, 0%)" d="M8 14h1v1H8zM9 14h1v1H9zM10 14h1v1h-1z"/>
      <path fill="hsl(0, 0%, 60%)" d="M11 14h1v1h-1zM12 14h1v1h-1z"/>
      <path fill="hsl(0, 0%, 0%)" d="M19 14h1v1h-1zM0 15h1v1H0z"/>
      <path fill="hsl(0, 0%, 60%)" d="M1 15h1v1H1zM2 15h1v1H2z"/>
      <path fill="hsl(0, 0%, 0%)" d="M7 15h1v1H7zM8 15h1v1H8zM9 15h1v1H9zM10 15h1v1h-1z"/>
      <path fill="hsl(0, 0%, 60%)" d="M11 15h1v1h-1zM12 15h1v1h-1zM13 15h1v1h-1z"/>
      <path fill="hsl(0, 0%, 0%)" d="M19 15h1v1h-1zM0 16h1v1H0zM1 16h1v1H1zM6 16h1v1H6zM7 16h1v1H7zM8 16h1v1H8zM11 16h1v1h-1z"/>
      <path fill="hsl(0, 0%, 60%)" d="M12 16h1v1h-1zM13 16h1v1h-1zM14 16h1v1h-1z"/>
      <path fill="hsl(0, 0%, 0%)" d="M18 16h1v1h-1zM19 16h1v1h-1zM1 17h1v1H1zM2 17h1v1H2zM5 17h1v1H5zM6 17h1v1H6zM7 17h1v1H7zM12 17h1v1h-1z"/>
      <path fill="hsl(0, 0%, 60%)" d="M13 17h1v1h-1zM14 17h1v1h-1zM15 17h1v1h-1z"/>
      <path fill="hsl(0, 0%, 0%)" d="M17 17h1v1h-1zM18 17h1v1h-1zM2 18h1v1H2zM3 18h1v1H3zM4 18h1v1H4zM5 18h1v1H5zM6 18h1v1H6zM13 18h1v1h-1z"/>
      <path fill="hsl(0, 0%, 60%)" d="M14 18h1v1h-1zM15 18h1v1h-1z"/>
      <path fill="hsl(0, 0%, 0%)" d="M16 18h1v1h-1zM17 18h1v1h-1zM3 19h1v1H3zM4 19h1v1H4zM5 19h1v1H5zM14 19h1v1h-1zM15 19h1v1h-1zM16 19h1v1h-1z"/>
    </pattern>
  </defs>
  <rect width="100%" height="100%" fill="url(#cardBack)"/>
</svg>